<?xml version="1.0" standalone="no"?><!-- Generator: Gravit.io --><svg xmlns="http://www.w3.org/2000/svg" xmlns:xlink="http://www.w3.org/1999/xlink" style="isolation:isolate" viewBox="0 0 48 48" width="48" height="48"><defs><clipPath id="_clipPath_zsb146AnMKWUt9PSzPrgk6bk1Jc3b8yZ"><rect width="48" height="48"/></clipPath></defs><g clip-path="url(#_clipPath_zsb146AnMKWUt9PSzPrgk6bk1Jc3b8yZ)"><g id="g463"><linearGradient id="_lgradient_1" x1="50.00000364940966%" y1="100.39866121616492%" x2="50.00000364940968%" y2="-0.3986599997575446%"><stop offset="0%" stop-opacity="1" style="stop-color:rgb(198,20,35)"/><stop offset="100%" stop-opacity="1" style="stop-color:rgb(220,43,65)"/></linearGradient><path d=" M 3.066 28.69 L 3.066 20.113 C 3.066 6.071 14.313 3.146 20.348 3.146 L 27.471 3.146 C 33.43 3.146 44.753 5.877 44.753 21.155 L 44.753 28.152 C 44.753 39.826 37.045 45.464 27.471 45.464 L 20.348 45.464 C 10.774 45.464 3.066 39.941 3.066 28.69 Z " fill="url(#_lgradient_1)" vector-effect="non-scaling-stroke" stroke-width="0.336" stroke="rgb(0,0,0)" stroke-opacity="0.078125" stroke-linejoin="bevel" stroke-linecap="square" stroke-miterlimit="4"/></g><g id="Claro"><g id="Group"><radialGradient id="_rgradient_0" fx="24946.95%" fy="30746.949999999997%" cx="24946.95%" cy="30746.949999999997%" r="22100.899999999998%"><stop offset="0%" stop-opacity="1" style="stop-color:rgb(255,255,255)"/><stop offset="26.11%" stop-opacity="1" style="stop-color:rgb(245,245,245)"/><stop offset="76.1%" stop-opacity="1" style="stop-color:rgb(229,229,229)"/></radialGradient><path d=" M 32.099 17 C 32.587 17.005 33.074 17.001 33.562 17.001 C 33.563 18.403 33.563 19.805 33.562 21.206 C 33.074 21.207 32.586 21.207 32.099 21.207 C 32.099 19.805 32.098 18.402 32.099 17 Z  M 35.335 21.746 C 36.675 20.448 37.999 19.135 39.338 17.836 C 39.681 18.177 40.035 18.507 40.371 18.854 C 39.047 20.163 37.709 21.459 36.384 22.767 C 36.029 22.432 35.685 22.086 35.335 21.746 Z  M 9.682 20.975 C 10.051 20.892 10.429 20.846 10.807 20.86 C 12.064 20.832 13.285 21.453 14.063 22.405 C 14.434 22.855 14.704 23.384 14.854 23.943 C 14.278 23.945 13.703 23.944 13.127 23.944 C 12.873 23.45 12.485 23.01 11.978 22.753 C 11.698 22.604 11.391 22.505 11.075 22.467 C 10.78 22.461 10.478 22.437 10.19 22.51 C 9.704 22.613 9.252 22.862 8.909 23.213 C 8.46 23.626 8.159 24.206 8.133 24.813 C 8.075 25.39 8.188 25.996 8.524 26.482 C 8.847 26.947 9.305 27.335 9.846 27.535 C 10.754 27.863 11.853 27.665 12.549 26.995 C 12.783 26.763 12.986 26.497 13.133 26.204 C 13.706 26.201 14.279 26.201 14.853 26.204 C 14.711 26.796 14.402 27.346 14.011 27.817 C 13.743 28.091 13.48 28.378 13.15 28.582 C 11.669 29.58 9.518 29.524 8.126 28.395 C 7.693 28.035 7.297 27.62 7.025 27.127 C 6.524 26.257 6.399 25.211 6.576 24.236 C 6.726 23.409 7.169 22.648 7.78 22.066 C 8.296 21.541 8.956 21.144 9.682 20.975 Z  M 15.731 20.86 C 16.278 20.86 16.826 20.86 17.372 20.86 C 17.372 23.682 17.374 26.505 17.372 29.327 C 16.825 29.329 16.278 29.327 15.731 29.327 C 15.731 26.504 15.731 23.682 15.731 20.86 Z  M 20.69 22.545 C 21.001 22.484 21.32 22.518 21.634 22.51 C 21.999 22.541 22.364 22.592 22.711 22.713 C 23.059 22.831 23.417 22.979 23.66 23.261 C 23.947 23.594 24.048 24.037 24.07 24.462 C 24.069 26.083 24.072 27.706 24.069 29.327 C 23.514 29.325 22.959 29.339 22.405 29.32 C 22.399 29.1 22.409 28.879 22.401 28.659 C 21.918 29.066 21.279 29.254 20.653 29.301 C 20.258 29.368 19.849 29.308 19.472 29.184 C 18.987 29.026 18.587 28.631 18.444 28.149 C 18.289 27.634 18.321 27.072 18.502 26.568 C 18.699 26.055 19.174 25.691 19.696 25.524 C 20.364 25.293 21.078 25.257 21.77 25.123 C 22.009 25.123 22.245 24.979 22.334 24.759 C 22.398 24.519 22.342 24.218 22.126 24.065 C 21.888 23.912 21.598 23.88 21.32 23.873 C 21.073 23.88 20.812 23.882 20.593 24.011 C 20.309 24.168 20.181 24.482 20.125 24.782 C 19.576 24.77 19.026 24.782 18.476 24.773 C 18.544 24.244 18.658 23.679 19.045 23.278 C 19.451 22.813 20.081 22.591 20.69 22.545 Z  M 21.9 26.206 C 21.575 26.279 21.255 26.374 20.925 26.423 C 20.663 26.474 20.386 26.557 20.2 26.755 C 19.94 27.056 19.921 27.518 20.122 27.852 C 20.21 28.006 20.383 28.081 20.545 28.136 C 21.065 28.234 21.637 28.075 22.017 27.71 C 22.407 27.232 22.338 26.586 22.337 26.014 C 22.184 26.062 22.06 26.177 21.9 26.206 Z  M 27.982 22.738 C 28.321 22.657 28.653 22.52 29.009 22.553 C 29.013 23.101 29.043 23.65 29.031 24.199 C 28.729 24.158 28.413 24.125 28.116 24.213 C 27.476 24.387 26.941 24.939 26.866 25.595 C 26.862 25.74 26.822 25.881 26.82 26.026 C 26.819 27.127 26.822 28.227 26.82 29.328 C 26.275 29.327 25.729 29.332 25.183 29.325 C 25.177 27.158 25.182 24.989 25.186 22.821 C 25.715 22.816 26.243 22.836 26.772 22.855 C 26.772 23.123 26.765 23.39 26.775 23.658 C 27.084 23.255 27.49 22.906 27.982 22.738 Z  M 32.07 22.57 C 32.313 22.546 32.56 22.523 32.806 22.543 C 34.277 22.561 35.621 23.672 35.972 25.058 C 36.275 26.191 35.98 27.498 35.104 28.319 C 34.597 28.855 33.902 29.218 33.164 29.327 C 32.808 29.33 32.453 29.329 32.097 29.328 C 31.036 29.182 30.113 28.472 29.589 27.574 C 29.045 26.587 29.042 25.337 29.576 24.346 C 30.083 23.434 31.006 22.719 32.07 22.57 Z  M 32.202 24.176 C 31.712 24.284 31.295 24.621 31.045 25.042 C 30.672 25.656 30.731 26.492 31.196 27.045 C 31.67 27.712 32.643 27.938 33.387 27.595 C 33.82 27.405 34.15 27.031 34.333 26.608 C 34.537 26.122 34.5 25.552 34.256 25.087 C 33.999 24.617 33.527 24.247 32.984 24.162 C 32.724 24.142 32.46 24.134 32.202 24.176 Z  M 37.116 24.42 C 38.577 24.42 40.038 24.419 41.5 24.421 C 41.499 24.896 41.501 25.372 41.499 25.847 C 40.038 25.846 38.578 25.85 37.117 25.848 C 37.114 25.372 37.118 24.896 37.116 24.42 L 37.116 24.42 Z " fill="url(#_rgradient_0)"/></g></g></g></svg>