<?xml version="1.0" standalone="no"?><!-- Generator: Gravit.io --><svg xmlns="http://www.w3.org/2000/svg" xmlns:xlink="http://www.w3.org/1999/xlink" style="isolation:isolate" viewBox="0 0 48 48" width="48" height="48"><defs><clipPath id="_clipPath_JyeHDKHLft788zCHPXJc7j6a1q4hbvDn"><rect width="48" height="48"/></clipPath></defs><g clip-path="url(#_clipPath_JyeHDKHLft788zCHPXJc7j6a1q4hbvDn)"><linearGradient id="_lgradient_4" x1="51.8384990664175%" y1="-1.183441048413414%" x2="52.22708713406312%" y2="99.45428562091787%"><stop offset="0%" stop-opacity="0" style="stop-color:rgb(0,0,0)"/><stop offset="100%" stop-opacity="0.046875" style="stop-color:rgb(0,0,0)"/></linearGradient><path d=" M 2.75 26.221 L 2.75 27.889 C 2.75 37.463 8.333 45.171 19.896 45.171 L 26.826 45.171 C 41.958 45.171 44.662 33.849 44.662 27.889 L 44.662 26.221 C 44.662 32.18 41.958 43.503 26.826 43.503 L 19.896 43.503 C 8.333 43.503 2.75 35.795 2.75 26.221 Z " fill="url(#_lgradient_4)"/><linearGradient id="_lgradient_5" x1="-0.39866335788447255%" y1="50.00000275863113%" x2="100.39866073337411%" y2="50.00000275863113%"><stop offset="0%" stop-opacity="1" style="stop-color:rgb(51,69,69)"/><stop offset="100%" stop-opacity="1" style="stop-color:rgb(83,97,97)"/></linearGradient><path d=" M 19.363 2.742 L 27.858 2.742 C 41.766 2.742 44.662 13.989 44.662 20.024 L 44.662 27.148 C 44.662 33.107 41.958 44.43 26.826 44.43 L 19.896 44.43 C 8.333 44.43 2.75 36.722 2.75 27.148 L 2.75 20.024 C 2.75 10.45 8.22 2.742 19.363 2.742 Z " fill="url(#_lgradient_5)" vector-effect="non-scaling-stroke" stroke-width="0.334" stroke="rgb(0,0,0)" stroke-opacity="0.078125" stroke-linejoin="bevel" stroke-linecap="square" stroke-miterlimit="4"/><g id="chip"><path d=" M 32.642 9.989 C 32.642 11.283 31.641 12.333 30.408 12.333 C 29.174 12.333 28.174 11.283 28.174 9.989 L 10.75 9.989 L 10.75 37.183 L 28.174 37.183 C 28.174 35.889 29.174 34.839 30.408 34.839 C 31.641 34.839 32.642 35.889 32.642 37.183 L 36.663 37.183 L 36.663 9.989 L 32.642 9.989 Z " fill="rgb(86,161,87)"/><path d=" M 10.75 9.989 L 10.75 13.74 L 14.324 9.989 L 10.75 9.989 Z " fill="rgb(235,218,108)"/><path d=" M 29.976 14.677 L 17.437 14.677 C 16.211 14.677 15.217 15.72 15.217 17.006 L 15.217 19.601 C 15.217 19.989 15.518 20.304 15.888 20.304 L 15.888 20.304 C 16.258 20.304 16.558 20.619 16.558 21.007 L 16.558 26.165 C 16.558 26.553 16.258 26.868 15.888 26.868 L 15.888 26.868 C 15.518 26.868 15.217 27.183 15.217 27.571 L 15.217 30.166 C 15.217 31.452 16.211 32.495 17.437 32.495 L 29.976 32.495 C 31.201 32.495 32.195 31.452 32.195 30.166 L 32.195 17.006 C 32.195 15.72 31.201 14.677 29.976 14.677 Z " fill="rgb(237,220,110)"/><g id="Group"><path d=" M 11.643 33.432 C 11.643 33.174 11.843 32.964 12.09 32.964 C 12.337 32.964 12.537 33.174 12.537 33.432 C 12.537 33.691 12.337 33.901 12.09 33.901 C 11.843 33.901 11.643 33.691 11.643 33.432 Z " fill="rgb(237,220,110)"/><path d=" M 11.643 35.777 C 11.643 35.518 11.843 35.308 12.09 35.308 C 12.337 35.308 12.537 35.518 12.537 35.777 C 12.537 36.036 12.337 36.246 12.09 36.246 C 11.843 36.246 11.643 36.036 11.643 35.777 Z " fill="rgb(237,220,110)"/><path d=" M 34.876 11.395 C 34.876 11.136 35.076 10.926 35.322 10.926 C 35.569 10.926 35.769 11.136 35.769 11.395 C 35.769 11.654 35.569 11.864 35.322 11.864 C 35.076 11.864 34.876 11.654 34.876 11.395 Z " fill="rgb(237,220,110)"/><path d=" M 34.876 35.777 C 34.876 35.518 35.076 35.308 35.322 35.308 C 35.569 35.308 35.769 35.518 35.769 35.777 C 35.769 36.036 35.569 36.246 35.322 36.246 C 35.076 36.246 34.876 36.036 34.876 35.777 Z " fill="rgb(237,220,110)"/><path d=" M 12.537 32.495 C 12.537 32.236 12.737 32.026 12.984 32.026 C 13.23 32.026 13.43 32.236 13.43 32.495 C 13.43 32.753 13.23 32.964 12.984 32.964 C 12.737 32.964 12.537 32.753 12.537 32.495 Z " fill="rgb(237,220,110)"/><path d=" M 33.982 25.93 C 33.982 25.672 34.182 25.461 34.429 25.461 C 34.675 25.461 34.876 25.672 34.876 25.93 C 34.876 26.189 34.675 26.399 34.429 26.399 C 34.182 26.399 33.982 26.189 33.982 25.93 Z " fill="rgb(237,220,110)"/><path d=" M 34.876 26.868 C 34.876 26.609 35.076 26.399 35.322 26.399 C 35.569 26.399 35.769 26.609 35.769 26.868 C 35.769 27.127 35.569 27.337 35.322 27.337 C 35.076 27.337 34.876 27.127 34.876 26.868 Z " fill="rgb(237,220,110)"/><path d=" M 33.982 30.619 C 33.982 30.36 34.182 30.15 34.429 30.15 C 34.675 30.15 34.876 30.36 34.876 30.619 C 34.876 30.878 34.675 31.088 34.429 31.088 C 34.182 31.088 33.982 30.878 33.982 30.619 Z " fill="rgb(237,220,110)"/><path d=" M 34.876 31.557 C 34.876 31.298 35.076 31.088 35.322 31.088 C 35.569 31.088 35.769 31.298 35.769 31.557 C 35.769 31.816 35.569 32.026 35.322 32.026 C 35.076 32.026 34.876 31.816 34.876 31.557 Z " fill="rgb(237,220,110)"/><path d=" M 33.982 21.242 C 33.982 20.983 34.182 20.773 34.429 20.773 C 34.675 20.773 34.876 20.983 34.876 21.242 C 34.876 21.5 34.675 21.71 34.429 21.71 C 34.182 21.71 33.982 21.5 33.982 21.242 Z " fill="rgb(237,220,110)"/><path d=" M 34.876 22.179 C 34.876 21.921 35.076 21.71 35.322 21.71 C 35.569 21.71 35.769 21.921 35.769 22.179 C 35.769 22.438 35.569 22.648 35.322 22.648 C 35.076 22.648 34.876 22.438 34.876 22.179 Z " fill="rgb(237,220,110)"/><path d=" M 11.643 31.088 C 11.643 30.829 11.843 30.619 12.09 30.619 C 12.337 30.619 12.537 30.829 12.537 31.088 C 12.537 31.347 12.337 31.557 12.09 31.557 C 11.843 31.557 11.643 31.347 11.643 31.088 Z " fill="rgb(237,220,110)"/><path d=" M 12.537 30.15 C 12.537 29.891 12.737 29.681 12.984 29.681 C 13.23 29.681 13.43 29.891 13.43 30.15 C 13.43 30.409 13.23 30.619 12.984 30.619 C 12.737 30.619 12.537 30.409 12.537 30.15 Z " fill="rgb(237,220,110)"/><path d=" M 11.643 28.744 C 11.643 28.485 11.843 28.275 12.09 28.275 C 12.337 28.275 12.537 28.485 12.537 28.744 C 12.537 29.002 12.337 29.213 12.09 29.213 C 11.843 29.213 11.643 29.002 11.643 28.744 Z " fill="rgb(237,220,110)"/><path d=" M 12.537 27.806 C 12.537 27.547 12.737 27.337 12.984 27.337 C 13.23 27.337 13.43 27.547 13.43 27.806 C 13.43 28.065 13.23 28.275 12.984 28.275 C 12.737 28.275 12.537 28.065 12.537 27.806 Z " fill="rgb(237,220,110)"/><path d=" M 11.643 26.399 C 11.643 26.14 11.843 25.93 12.09 25.93 C 12.337 25.93 12.537 26.14 12.537 26.399 C 12.537 26.658 12.337 26.868 12.09 26.868 C 11.843 26.868 11.643 26.658 11.643 26.399 Z " fill="rgb(237,220,110)"/><path d=" M 12.537 25.461 C 12.537 25.203 12.737 24.993 12.984 24.993 C 13.23 24.993 13.43 25.203 13.43 25.461 C 13.43 25.72 13.23 25.93 12.984 25.93 C 12.737 25.93 12.537 25.72 12.537 25.461 Z " fill="rgb(237,220,110)"/><path d=" M 11.643 24.055 C 11.643 23.796 11.843 23.586 12.09 23.586 C 12.337 23.586 12.537 23.796 12.537 24.055 C 12.537 24.314 12.337 24.524 12.09 24.524 C 11.843 24.524 11.643 24.314 11.643 24.055 Z " fill="rgb(237,220,110)"/><path d=" M 12.537 23.117 C 12.537 22.858 12.737 22.648 12.984 22.648 C 13.23 22.648 13.43 22.858 13.43 23.117 C 13.43 23.376 13.23 23.586 12.984 23.586 C 12.737 23.586 12.537 23.376 12.537 23.117 Z " fill="rgb(237,220,110)"/><path d=" M 11.643 21.71 C 11.643 21.452 11.843 21.242 12.09 21.242 C 12.337 21.242 12.537 21.452 12.537 21.71 C 12.537 21.969 12.337 22.179 12.09 22.179 C 11.843 22.179 11.643 21.969 11.643 21.71 Z " fill="rgb(237,220,110)"/><path d=" M 12.537 20.773 C 12.537 20.514 12.737 20.304 12.984 20.304 C 13.23 20.304 13.43 20.514 13.43 20.773 C 13.43 21.032 13.23 21.242 12.984 21.242 C 12.737 21.242 12.537 21.032 12.537 20.773 Z " fill="rgb(237,220,110)"/><path d=" M 11.643 14.677 C 11.643 14.419 11.843 14.208 12.09 14.208 C 12.337 14.208 12.537 14.419 12.537 14.677 C 12.537 14.936 12.337 15.146 12.09 15.146 C 11.843 15.146 11.643 14.936 11.643 14.677 Z " fill="rgb(237,220,110)"/><path d=" M 17.451 11.395 C 17.451 11.136 17.652 10.926 17.898 10.926 C 18.145 10.926 18.345 11.136 18.345 11.395 C 18.345 11.654 18.145 11.864 17.898 11.864 C 17.652 11.864 17.451 11.654 17.451 11.395 Z " fill="rgb(237,220,110)"/><path d=" M 15.664 11.395 C 15.664 11.136 15.864 10.926 16.111 10.926 C 16.358 10.926 16.558 11.136 16.558 11.395 C 16.558 11.654 16.358 11.864 16.111 11.864 C 15.864 11.864 15.664 11.654 15.664 11.395 Z " fill="rgb(237,220,110)"/><path d=" M 11.643 16.084 C 11.643 15.825 11.843 15.615 12.09 15.615 C 12.337 15.615 12.537 15.825 12.537 16.084 C 12.537 16.343 12.337 16.553 12.09 16.553 C 11.843 16.553 11.643 16.343 11.643 16.084 Z " fill="rgb(237,220,110)"/><path d=" M 26.387 35.777 C 26.387 35.518 26.587 35.308 26.834 35.308 C 27.08 35.308 27.28 35.518 27.28 35.777 C 27.28 36.036 27.08 36.246 26.834 36.246 C 26.587 36.246 26.387 36.036 26.387 35.777 Z " fill="rgb(237,220,110)"/><path d=" M 25.493 34.839 C 25.493 34.58 25.693 34.37 25.94 34.37 C 26.187 34.37 26.387 34.58 26.387 34.839 C 26.387 35.098 26.187 35.308 25.94 35.308 C 25.693 35.308 25.493 35.098 25.493 34.839 Z " fill="rgb(237,220,110)"/><path d=" M 24.153 35.777 C 24.153 35.518 24.353 35.308 24.6 35.308 C 24.846 35.308 25.046 35.518 25.046 35.777 C 25.046 36.036 24.846 36.246 24.6 36.246 C 24.353 36.246 24.153 36.036 24.153 35.777 Z " fill="rgb(237,220,110)"/><path d=" M 23.259 34.839 C 23.259 34.58 23.46 34.37 23.706 34.37 C 23.953 34.37 24.153 34.58 24.153 34.839 C 24.153 35.098 23.953 35.308 23.706 35.308 C 23.46 35.308 23.259 35.098 23.259 34.839 Z " fill="rgb(237,220,110)"/><path d=" M 21.919 35.777 C 21.919 35.518 22.119 35.308 22.366 35.308 C 22.612 35.308 22.813 35.518 22.813 35.777 C 22.813 36.036 22.612 36.246 22.366 36.246 C 22.119 36.246 21.919 36.036 21.919 35.777 Z " fill="rgb(237,220,110)"/><path d=" M 21.026 34.839 C 21.026 34.58 21.226 34.37 21.472 34.37 C 21.719 34.37 21.919 34.58 21.919 34.839 C 21.919 35.098 21.719 35.308 21.472 35.308 C 21.226 35.308 21.026 35.098 21.026 34.839 Z " fill="rgb(237,220,110)"/><path d=" M 19.685 35.777 C 19.685 35.518 19.885 35.308 20.132 35.308 C 20.379 35.308 20.579 35.518 20.579 35.777 C 20.579 36.036 20.379 36.246 20.132 36.246 C 19.885 36.246 19.685 36.036 19.685 35.777 Z " fill="rgb(237,220,110)"/><path d=" M 18.792 34.839 C 18.792 34.58 18.992 34.37 19.238 34.37 C 19.485 34.37 19.685 34.58 19.685 34.839 C 19.685 35.098 19.485 35.308 19.238 35.308 C 18.992 35.308 18.792 35.098 18.792 34.839 Z " fill="rgb(237,220,110)"/><path d=" M 17.451 35.777 C 17.451 35.518 17.652 35.308 17.898 35.308 C 18.145 35.308 18.345 35.518 18.345 35.777 C 18.345 36.036 18.145 36.246 17.898 36.246 C 17.652 36.246 17.451 36.036 17.451 35.777 Z " fill="rgb(237,220,110)"/><path d=" M 16.558 34.839 C 16.558 34.58 16.758 34.37 17.005 34.37 C 17.251 34.37 17.451 34.58 17.451 34.839 C 17.451 35.098 17.251 35.308 17.005 35.308 C 16.758 35.308 16.558 35.098 16.558 34.839 Z " fill="rgb(237,220,110)"/><path d=" M 15.217 35.777 C 15.217 35.518 15.418 35.308 15.664 35.308 C 15.911 35.308 16.111 35.518 16.111 35.777 C 16.111 36.036 15.911 36.246 15.664 36.246 C 15.418 36.246 15.217 36.036 15.217 35.777 Z " fill="rgb(237,220,110)"/><path d=" M 14.324 34.839 C 14.324 34.58 14.524 34.37 14.771 34.37 C 15.017 34.37 15.217 34.58 15.217 34.839 C 15.217 35.098 15.017 35.308 14.771 35.308 C 14.524 35.308 14.324 35.098 14.324 34.839 Z " fill="rgb(237,220,110)"/></g><path d=" M 29.374 31.088 L 18.038 31.088 C 17.22 31.088 16.558 30.393 16.558 29.535 L 16.558 17.637 C 16.558 16.779 17.22 16.084 18.038 16.084 L 29.375 16.084 C 30.192 16.084 30.855 16.779 30.855 17.637 L 30.855 29.535 C 30.855 30.393 30.192 31.088 29.374 31.088 Z " fill="rgb(65,65,65)"/></g><g transform="matrix(1,0,0,1,16,20.024)"><text transform="matrix(1,0,0,1,2.22,5.976)" style="font-family:&quot;Offside&quot;;font-weight:400;font-size:6px;font-style:normal;fill:#ffffff;stroke:none;">CPU</text></g></g></svg>