<?xml version="1.0" standalone="no"?><!-- Generator: Gravit.io --><svg xmlns="http://www.w3.org/2000/svg" xmlns:xlink="http://www.w3.org/1999/xlink" style="isolation:isolate" viewBox="0 0 48 48" width="48" height="48"><defs><clipPath id="_clipPath_rQvE8mtYe3xQinkQZJAG2LggC2ljQ4Fc"><rect width="48" height="48"/></clipPath></defs><g clip-path="url(#_clipPath_rQvE8mtYe3xQinkQZJAG2LggC2ljQ4Fc)"><linearGradient id="_lgradient_0" x1="51.83850297947266%" y1="-1.183441468950086%" x2="52.227091053872144%" y2="99.45428475086146%"><stop offset="0%" stop-opacity="0" style="stop-color:rgb(0,0,0)"/><stop offset="100%" stop-opacity="0.046875" style="stop-color:rgb(0,0,0)"/></linearGradient><path d=" M 2.75 26.937 L 2.75 28.656 C 2.75 38.523 8.429 46.466 20.19 46.466 L 27.24 46.466 C 42.632 46.466 45.383 34.798 45.383 28.656 L 45.383 26.937 C 45.383 33.078 42.632 44.746 27.24 44.746 L 20.19 44.746 C 8.429 44.746 2.75 36.803 2.75 26.937 Z " fill="url(#_lgradient_0)"/><path d=" M 19.649 2.742 L 28.29 2.742 C 42.437 2.742 45.383 14.332 45.383 20.552 L 45.383 27.892 C 45.383 34.033 42.632 45.701 27.24 45.701 L 20.191 45.701 C 8.429 45.701 2.75 37.758 2.75 27.892 L 2.75 20.552 C 2.75 10.685 8.314 2.742 19.649 2.742 Z " fill="rgb(230,230,230)" vector-effect="non-scaling-stroke" stroke-width="0.342" stroke="rgb(0,0,0)" stroke-opacity="0.078125" stroke-linejoin="bevel" stroke-linecap="square" stroke-miterlimit="4"/><g id="EBay_former_logo"><g id="Layer_6"><path d=" M 39.207 16.396 L 36.271 22.268 L 33.514 16.396 L 29.302 16.396 L 34.127 25.484 L 34.127 30.297 L 37.982 30.297 L 37.982 25.484 L 43.139 16.396 L 39.207 16.396 Z " fill="rgb(153,204,0)"/></g><g id="Layer_5"><path d=" M 32.925 25.816 L 32.925 23.219 L 32.925 23.219 C 32.92 23.195 32.094 19.364 29.995 17.701 L 29.995 17.701 C 29.611 17.653 29.18 17.627 28.691 17.627 C 28.302 17.627 27.933 17.648 27.588 17.694 C 26.931 17.782 26.365 17.963 25.925 18.269 C 25.233 18.717 24.835 19.475 24.835 20.662 L 24.835 20.662 L 27.727 20.662 L 27.727 20.662 C 27.727 19.957 27.796 19.3 28.573 19.183 C 28.654 19.17 28.742 19.164 28.838 19.164 C 29.907 19.164 30.032 19.767 30.032 20.603 L 30.032 21.362 C 29.997 21.361 29.963 21.361 29.928 21.361 C 28.313 21.34 26.724 21.395 25.704 22.121 C 25.704 22.121 25.704 22.121 25.704 22.121 C 25.013 22.613 24.583 23.413 24.583 24.707 C 24.583 26.203 25.159 27.475 26.674 27.773 C 26.674 27.773 26.674 27.772 26.674 27.772 C 26.674 27.772 26.674 27.773 26.674 27.773 C 26.893 27.816 27.132 27.839 27.392 27.839 C 27.991 27.839 28.498 27.732 28.933 27.514 C 29.425 27.268 29.824 26.878 30.158 26.341 L 30.2 26.341 L 30.326 27.644 L 30.326 27.644 L 33.071 27.644 C 33.009 27.041 32.925 26.419 32.925 25.816 Z  M 28.565 26.147 C 27.601 26.147 27.475 25.291 27.475 24.591 C 27.475 23.551 27.86 23.17 28.479 23.02 C 28.903 22.917 29.436 22.922 30.032 22.899 C 30.032 23.785 30.219 25.431 29.295 25.97 C 29.104 26.082 28.864 26.147 28.565 26.147 Z " fill="rgb(255,204,0)"/></g><g id="Layer_4"><path d=" M 25.704 22.121 C 25.704 22.121 25.704 22.121 25.704 22.121 C 25.281 21.704 24.677 21.443 23.81 21.443 C 22.747 21.443 22.017 21.733 21.412 22.565 L 21.37 22.565 L 21.37 17.436 L 18.429 17.436 L 18.429 31.411 L 21.224 31.411 L 21.224 30.327 L 21.266 30.327 C 21.808 31.275 22.622 31.604 23.748 31.604 C 26.18 31.604 26.602 29.604 26.674 27.773 M 23.81 26.436 C 23.81 28.895 23.623 29.921 22.559 29.921 C 21.558 29.921 21.37 28.895 21.37 26.436 C 21.37 24.482 21.349 23.127 22.559 23.127 C 23.831 23.127 23.81 24.482 23.81 26.436 Z " fill="rgb(0,0,153)"/></g><g id="Layer_3"><path d=" M 18.429 22.055 L 18.429 22.055 C 17.991 21.875 17.475 21.723 16.863 21.604 C 15.814 21.399 14.495 21.287 12.831 21.287 C 5.755 21.287 4.994 23.299 4.994 25.652 C 4.994 28.346 5.907 30.239 12.831 30.239 C 14.424 30.239 15.786 30.092 16.88 29.867 C 17.464 29.746 17.99 29.578 18.429 29.4 L 18.429 29.4 C 18.464 29.386 19.398 28.72 19.083 27.833 C 19.005 27.613 18.429 27.131 18.429 27.131 L 18.429 27.131 L 16.896 27.131 L 16.863 27.128 L 15.114 27.128 C 15.114 27.885 14.734 28.704 12.831 28.704 C 10.473 28.704 10.397 27.169 10.397 26.146 L 18.429 26.146 L 18.429 26.146 C 18.429 26.146 20.07 24.454 18.429 22.055 Z  M 15.304 24.799 L 10.397 24.799 C 10.397 24.066 10.359 22.77 12.831 22.77 C 15.38 22.77 15.304 23.964 15.304 24.799 Z " fill="rgb(255,0,0)"/></g><g id="Layer_1"><path d=" M 29.995 17.701 L 32.925 23.219 L 32.925 20.914 C 32.925 19.358 32.559 18.023 29.995 17.701 Z " fill="rgb(153,153,0)"/><path d=" M 26.688 26.456 C 26.688 25.059 26.729 23.131 25.704 22.121 C 25.013 22.613 24.583 23.413 24.583 24.707 C 24.583 26.203 25.159 27.475 26.674 27.773 C 26.692 27.312 26.688 26.861 26.688 26.456 Z " fill="rgb(204,102,0)"/></g><g id="Layer_2"><path d=" M 20.588 27.131 L 18.429 27.131 L 18.429 29.4 C 18.464 29.386 18.5 29.372 18.533 29.358 C 19.827 28.829 20.512 28.062 20.588 27.131 Z " fill="rgb(153,0,51)"/><path d=" M 20.668 26.146 C 20.79 24.39 20.506 22.905 18.429 22.055 L 18.429 26.146 L 20.668 26.146 Z " fill="rgb(153,0,51)"/></g></g></g></svg>