<?xml version="1.0" encoding="UTF-8" standalone="no"?>
<!-- Generator: Gravit.io -->

<svg
   xmlns:dc="http://purl.org/dc/elements/1.1/"
   xmlns:cc="http://creativecommons.org/ns#"
   xmlns:rdf="http://www.w3.org/1999/02/22-rdf-syntax-ns#"
   xmlns:svg="http://www.w3.org/2000/svg"
   xmlns="http://www.w3.org/2000/svg"
   xmlns:sodipodi="http://sodipodi.sourceforge.net/DTD/sodipodi-0.dtd"
   xmlns:inkscape="http://www.inkscape.org/namespaces/inkscape"
   style="isolation:isolate"
   viewBox="0 0 48 48"
   width="48"
   height="48"
   version="1.1"
   id="svg40"
   sodipodi:docname="fan.svg"
   inkscape:version="0.92.3 (2405546, 2018-03-11)">
  <metadata
     id="metadata44">
    <rdf:RDF>
      <cc:Work
         rdf:about="">
        <dc:format>image/svg+xml</dc:format>
        <dc:type
           rdf:resource="http://purl.org/dc/dcmitype/StillImage" />
      </cc:Work>
    </rdf:RDF>
  </metadata>
  <sodipodi:namedview
     pagecolor="#ffffff"
     bordercolor="#666666"
     borderopacity="1"
     objecttolerance="10"
     gridtolerance="10"
     guidetolerance="10"
     inkscape:pageopacity="0"
     inkscape:pageshadow="2"
     inkscape:window-width="1360"
     inkscape:window-height="678"
     id="namedview42"
     showgrid="false"
     inkscape:zoom="6.9532167"
     inkscape:cx="22.25682"
     inkscape:cy="14.706846"
     inkscape:window-x="0"
     inkscape:window-y="0"
     inkscape:window-maximized="1"
     inkscape:current-layer="svg40" />
  <defs
     id="defs5">
    <clipPath
       id="_clipPath_8cK7N3GTQIUvpBWzUyVZKRQHhibT0xAJ">
      <rect
         width="48"
         height="48"
         id="rect2" />
    </clipPath>
  </defs>
  <g
     clip-path="url(#_clipPath_8cK7N3GTQIUvpBWzUyVZKRQHhibT0xAJ)"
     id="g38"
     transform="matrix(0.95217572,0,0,0.97579807,1.1303345,1.0471975)">
    <g
       id="g721">
      <path
         d="M 46.108,19.838 C 46.154,8.695 37.673,3.196 27.108,3.16 l -4.737,-0.016 -0.173,41.91 4.736,0.016 c 6.66,0.023 19.081,-2.832 19.139,-16.739 z"
         stroke-miterlimit="4"
         id="path7"
         inkscape:connector-curvature="0"
         style="vector-effect:non-scaling-stroke;fill:#97e40c;stroke:#000000;stroke-width:0.35100001;stroke-linecap:square;stroke-linejoin:bevel;stroke-miterlimit:4;stroke-opacity:0.078125" />
      <path
         d="M 2.049,28.389 C 2.022,39.532 9.803,45.021 19.487,45.044 l 4.342,0.01 0.103,-41.91 -4.342,-0.01 C 13.485,3.119 2.104,5.989 2.07,19.896 Z"
         stroke-miterlimit="4"
         id="path9"
         inkscape:connector-curvature="0"
         style="vector-effect:non-scaling-stroke;fill:#373737;stroke:#000000;stroke-width:0.336;stroke-linecap:square;stroke-linejoin:bevel;stroke-miterlimit:4;stroke-opacity:0.078125" />
      <linearGradient
         id="_lgradient_0"
         x1="4.2191939"
         y1="16.914747"
         x2="32.677864"
         y2="16.852987"
         gradientTransform="scale(0.677834,1.4752875)"
         gradientUnits="userSpaceOnUse">
        <stop
           offset="0%"
           stop-opacity="0.046875"
           style="stop-color:rgb(0,0,0)"
           id="stop11" />
        <stop
           offset="100%"
           stop-opacity="0"
           style="stop-color:rgb(0,0,0)"
           id="stop13" />
      </linearGradient>
      <path
         d="M 22.006,3.137 20.318,3.13 C 10.634,3.094 2.817,8.648 2.773,20.21 L 2.747,27.14 C 2.689,42.272 14.131,45.018 20.159,45.041 l 1.687,0.006 C 15.819,45.025 4.377,42.278 4.434,27.147 L 4.461,20.216 C 4.505,8.655 12.322,3.101 22.006,3.137 Z"
         id="path16"
         style="fill:url(#_lgradient_0)"
         inkscape:connector-curvature="0" />
    </g>
    <g
       id="fan"
       style="filter:url(#1X25g8ShhumWaWZYG36A8KlwvPXl38Xz)">
      <g
         id="g22">
        <g
           id="Group">
          <path
             d="m 29.739,21.071 c 2.447,-1.044 5.637,-1.68 10.313,-1.548 -2.239,-2.852 -4.241,-4.933 -5.441,-7.025 -3.315,1.916 -5.744,3.899 -7.553,5.908 -0.833,-0.438 -1.765,-0.708 -2.761,-0.742 0.311,-2.624 1.339,-5.699 3.81,-9.714 -2.687,0 -5.372,0 -8.059,0 -0.562,4.776 -0.195,8.093 0.609,10.693 -0.83,0.522 -1.526,1.229 -2.045,2.064 -2.11,-1.539 -4.244,-3.703 -6.449,-6.755 -1.106,2.474 -2.203,4.137 -4.06,5.565 3.821,2.859 6.887,4.223 9.551,4.835 0.04,1.007 0.315,1.94 0.761,2.776 -2.447,1.044 -5.637,1.678 -10.312,1.546 2.237,2.852 4.239,4.933 5.441,7.025 3.313,-1.916 5.743,-3.895 7.55,-5.904 0.833,0.438 1.765,0.707 2.764,0.741 -0.311,2.625 -1.339,5.7 -3.81,9.714 2.687,0 5.372,0 8.059,0 0.564,-4.775 0.195,-8.092 -0.611,-10.693 0.832,-0.521 1.527,-1.229 2.047,-2.064 2.112,1.538 4.247,3.703 6.451,6.751 1.106,-2.472 2.202,-4.137 4.06,-5.563 -3.821,-2.859 -6.886,-4.222 -9.553,-4.836 -0.042,-1.003 -0.315,-1.936 -0.762,-2.774 z m -5.661,5.051 c -1.112,0 -2.015,-0.906 -2.015,-2.019 0,-1.113 0.903,-2.019 2.015,-2.019 1.111,0 2.015,0.906 2.015,2.019 0,1.113 -0.904,2.019 -2.015,2.019 z"
             id="path19"
             inkscape:connector-curvature="0"
             style="fill:#ffffff" />
        </g>
      </g>
    </g>
    <defs
       id="defs36">
      <filter
         id="1X25g8ShhumWaWZYG36A8KlwvPXl38Xz"
         x="-2"
         y="-2"
         width="4"
         height="4">
        <feOffset
           in="SourceAlpha"
           result="offOut"
           dx="0"
           dy="0"
           id="feOffset25" />
        <feGaussianBlur
           in="offOut"
           result="blurOut"
           stdDeviation="2.5"
           id="feGaussianBlur27" />
        <feComponentTransfer
           in="blurOut"
           result="opacOut"
           id="feComponentTransfer31">
          <feFuncA
             type="table"
             tableValues="0 0.5"
             id="feFuncA29" />
        </feComponentTransfer>
        <feBlend
           in="SourceGraphic"
           in2="opacOut"
           mode="normal"
           id="feBlend33" />
      </filter>
    </defs>
  </g>
</svg>
