<?xml version="1.0" standalone="no"?><!-- Generator: Gravit.io --><svg xmlns="http://www.w3.org/2000/svg" xmlns:xlink="http://www.w3.org/1999/xlink" style="isolation:isolate" viewBox="0 0 48 48" width="48" height="48"><defs><clipPath id="_clipPath_7hkEiCPi7i09V1V3mGlgqdeBzPgG94ng"><rect width="48" height="48"/></clipPath></defs><g clip-path="url(#_clipPath_7hkEiCPi7i09V1V3mGlgqdeBzPgG94ng)"><linearGradient id="_lgradient_2" x1="51.838494618321995%" y1="-1.1834386022882448%" x2="52.2270827796087%" y2="99.45428332212789%"><stop offset="0%" stop-opacity="0" style="stop-color:rgb(0,0,0)"/><stop offset="100%" stop-opacity="0.046875" style="stop-color:rgb(0,0,0)"/></linearGradient><path d=" M 3.168 26.815 L 3.168 28.51 C 3.168 38.235 8.751 46.065 20.314 46.065 L 27.244 46.065 C 42.376 46.065 45.08 34.563 45.08 28.51 L 45.08 26.815 C 45.08 32.869 42.376 44.37 27.244 44.37 L 20.314 44.37 C 8.751 44.37 3.168 36.54 3.168 26.815 Z " fill="url(#_lgradient_2)"/><linearGradient id="_lgradient_3" x1="49.9999977211308%" y1="100.39866301399168%" x2="49.9999977211308%" y2="-0.39866195360869217%"><stop offset="0%" stop-opacity="1" style="stop-color:rgb(25,124,241)"/><stop offset="100%" stop-opacity="1" style="stop-color:rgb(32,188,250)"/></linearGradient><path d=" M 3.281 28.55 L 3.281 19.921 C 3.281 5.794 14.527 2.852 20.563 2.852 L 27.686 2.852 C 33.645 2.852 44.968 5.599 44.968 20.97 L 44.968 28.009 C 44.968 39.754 37.26 45.426 27.686 45.426 L 20.563 45.426 C 10.988 45.426 3.281 39.869 3.281 28.55 Z " fill="url(#_lgradient_3)" vector-effect="non-scaling-stroke" stroke-width="0.337" stroke="rgb(0,0,0)" stroke-opacity="0.078125" stroke-linejoin="bevel" stroke-linecap="square" stroke-miterlimit="4"/><path d=" M 18.916 26.863 C 18.916 27.562 19.021 28.198 19.235 28.77 C 19.463 29.333 19.76 29.837 20.138 30.278 C 20.517 30.718 20.959 31.095 21.479 31.413 C 21.981 31.731 22.529 31.994 23.113 32.198 C 23.692 32.407 24.299 32.562 24.915 32.661 C 25.54 32.761 26.146 32.811 26.762 32.811 C 27.538 32.811 28.259 32.752 28.943 32.63 C 29.627 32.503 30.293 32.335 30.95 32.121 C 31.607 31.908 32.241 31.653 32.875 31.363 C 33.514 31.072 34.162 30.754 34.828 30.4 L 34.828 36.557 C 34.084 36.921 33.354 37.225 32.624 37.488 C 31.895 37.742 31.165 37.965 30.421 38.142 C 29.677 38.324 28.925 38.46 28.154 38.542 C 27.383 38.623 26.593 38.669 25.772 38.669 C 24.677 38.669 23.619 38.542 22.602 38.292 C 21.584 38.042 20.631 37.683 19.737 37.211 C 18.843 36.739 18.026 36.167 17.282 35.495 C 16.534 34.823 15.9 34.065 15.366 33.225 C 14.833 32.385 14.422 31.463 14.126 30.473 C 13.838 29.483 13.692 28.43 13.692 27.313 C 13.692 26.119 13.856 24.983 14.185 23.898 C 14.518 22.808 14.988 21.819 15.608 20.91 C 16.224 20.002 16.977 19.194 17.866 18.49 C 18.756 17.787 19.755 17.21 20.868 16.765 C 20.261 17.369 19.787 18.082 19.454 18.913 C 19.112 19.739 18.897 20.57 18.802 21.401 L 29.194 21.401 C 29.194 20.356 29.089 19.448 28.875 18.667 C 28.66 17.886 28.318 17.237 27.839 16.724 C 27.364 16.206 26.753 15.816 26 15.562 C 25.248 15.303 24.34 15.171 23.277 15.171 C 22.022 15.171 20.768 15.353 19.513 15.73 C 18.259 16.093 17.068 16.615 15.937 17.273 C 14.805 17.941 13.765 18.726 12.816 19.625 C 11.867 20.534 11.069 21.51 10.421 22.568 C 10.558 21.342 10.832 20.161 11.21 19.04 C 11.589 17.918 12.091 16.874 12.693 15.907 C 13.295 14.953 14.002 14.081 14.81 13.3 C 15.617 12.519 16.511 11.847 17.501 11.303 C 18.491 10.758 19.541 10.317 20.681 10.022 C 21.822 9.763 23.035 9.609 24.312 9.609 C 25.061 9.609 25.804 9.677 26.548 9.809 C 27.291 9.945 28.017 10.127 28.724 10.363 C 30.129 10.844 31.384 11.516 32.488 12.37 C 33.592 13.232 34.518 14.213 35.27 15.335 C 36.023 16.456 36.593 17.696 36.986 19.044 C 37.378 20.393 37.579 21.796 37.579 23.253 L 37.579 26.863 L 18.916 26.863 Z " fill="rgb(255,255,255)"/></g></svg>