<?xml version="1.0" standalone="no"?><!-- Generator: Gravit.io --><svg xmlns="http://www.w3.org/2000/svg" xmlns:xlink="http://www.w3.org/1999/xlink" style="isolation:isolate" viewBox="0 0 48 48" width="48" height="48"><defs><clipPath id="_clipPath_LUkDW3HIscpLNGRQd7f8Auf6udDe8EjP"><rect width="48" height="48"/></clipPath></defs><g clip-path="url(#_clipPath_LUkDW3HIscpLNGRQd7f8Auf6udDe8EjP)"><linearGradient id="_lgradient_0" x1="51.83850574354864%" y1="-1.1834373546236732%" x2="52.22709391132532%" y2="99.45428931470262%"><stop offset="0%" stop-opacity="0" style="stop-color:rgb(0,0,0)"/><stop offset="100%" stop-opacity="0.046875" style="stop-color:rgb(0,0,0)"/></linearGradient><path d=" M 2.965 26.443 L 2.965 28.111 C 2.965 37.686 8.548 45.393 20.111 45.393 L 27.041 45.393 C 42.173 45.393 44.877 34.071 44.877 28.111 L 44.877 26.443 C 44.877 32.402 42.173 43.725 27.041 43.725 L 20.111 43.725 C 8.548 43.725 2.965 36.017 2.965 26.443 Z " fill="url(#_lgradient_0)"/><path d=" M 19.578 2.965 L 28.073 2.965 C 41.981 2.965 44.877 14.211 44.877 20.247 L 44.877 27.37 C 44.877 33.329 42.173 44.652 27.041 44.652 L 20.111 44.652 C 8.548 44.652 2.965 36.944 2.965 27.37 L 2.965 20.247 C 2.965 10.672 8.435 2.965 19.578 2.965 Z " fill="rgb(244,167,46)" vector-effect="non-scaling-stroke" stroke-width="0.334" stroke="rgb(0,0,0)" stroke-opacity="0.078125" stroke-linejoin="bevel" stroke-linecap="square" stroke-miterlimit="4"/><g id="Bing_Logo_2015"><path d=" M 79.174 39.447 C 79.176 39.359 79.278 38.921 79.401 38.474 L 79.626 37.662 Q 79.173 39.605 79.174 39.447 Z  M 18.258 37.816 L 15.032 35.266 L 15.032 21.817 C 15.032 14.42 15.08 8.367 15.139 8.367 C 15.197 8.367 15.283 8.41 15.33 8.463 C 15.377 8.516 16.781 9.023 18.45 9.59 L 21.485 10.621 L 21.508 19.693 L 21.532 28.764 L 18.621 31.697 C 17.019 33.311 15.63 34.686 15.534 34.753 C 15.438 34.82 15.398 34.918 15.445 34.971 C 15.492 35.025 16.784 34.325 18.316 33.416 C 19.848 32.507 23.272 30.474 25.925 28.9 C 28.577 27.325 30.748 25.999 30.748 25.952 C 30.748 25.906 29.791 25.384 28.621 24.793 C 26.654 23.8 26.48 23.681 26.308 23.214 C 26.205 22.937 25.982 22.375 25.811 21.965 C 24.641 19.156 23.754 16.937 23.786 16.897 C 23.826 16.849 26.288 17.678 33.591 20.199 L 37.903 21.687 L 37.903 25.607 L 37.903 29.527 L 35.443 31.155 C 34.091 32.05 30.598 34.382 27.681 36.337 C 22.857 39.571 21.634 40.371 21.523 40.367 C 21.502 40.366 20.033 39.218 18.258 37.816 L 18.258 37.816 Z " fill="rgb(42,42,42)"/></g></g></svg>