<?xml version="1.0" standalone="no"?><!-- Generator: Gravit.io --><svg xmlns="http://www.w3.org/2000/svg" xmlns:xlink="http://www.w3.org/1999/xlink" style="isolation:isolate" viewBox="0 0 48 48" width="48" height="48"><defs><clipPath id="_clipPath_U4qCdIfwyNm9YQudi5o27NZ9vDohjKgy"><rect width="48" height="48"/></clipPath></defs><g clip-path="url(#_clipPath_U4qCdIfwyNm9YQudi5o27NZ9vDohjKgy)"><linearGradient id="_lgradient_2" x1="51.83850109281386%" y1="-1.1834373546236732%" x2="52.22708933661602%" y2="99.45428931470046%"><stop offset="0%" stop-opacity="0" style="stop-color:rgb(0,0,0)"/><stop offset="100%" stop-opacity="0.046875" style="stop-color:rgb(0,0,0)"/></linearGradient><path d=" M 2.433 26.443 L 2.433 28.111 C 2.433 37.686 8.016 45.393 19.579 45.393 L 26.509 45.393 C 41.642 45.393 44.346 34.071 44.346 28.111 L 44.346 26.443 C 44.346 32.402 41.642 43.725 26.509 43.725 L 19.579 43.725 C 8.016 43.725 2.433 36.017 2.433 26.443 Z " fill="url(#_lgradient_2)"/><radialGradient id="_rgradient_2" fx="50%" fy="50%" cx="50%" cy="50%" r="50%"><stop offset="0%" stop-opacity="1" style="stop-color:rgb(77,77,77)"/><stop offset="100%" stop-opacity="1" style="stop-color:rgb(55,55,55)"/></radialGradient><path d=" M 19.564 2.966 L 28.322 2.966 C 42.662 2.966 45.649 14.406 45.649 20.545 L 45.649 27.791 C 45.649 33.852 42.86 45.37 27.258 45.37 L 20.113 45.37 C 8.191 45.37 2.435 37.529 2.435 27.791 L 2.435 20.545 C 2.435 10.806 8.075 2.966 19.564 2.966 Z " fill="url(#_rgradient_2)" vector-effect="non-scaling-stroke" stroke-width="0.342" stroke="rgb(0,0,0)" stroke-opacity="0.078125" stroke-linejoin="bevel" stroke-linecap="square" stroke-miterlimit="4"/><g id="g27"><g id="g25"/></g><g id="g1488"><g id="g226"><path d=" M -14.397 -11.555 L 62.48 -11.555 L 62.48 59.172 L -14.397 59.172 L -14.397 -11.555 Z " fill="none"/></g></g><g id="netdata"><path d=" M 25.684 38.6 L 25.684 37.702 C 25.683 37.989 25.683 38.277 25.683 38.564 C 25.683 38.576 25.683 38.588 25.684 38.6 Z " fill="none"/><path d=" M 11.216 29.289 C 13.413 30.001 15.669 30.215 17.972 30.167 C 23.008 30.062 27.347 28.237 31.006 24.828 C 33.702 22.316 35.351 19.171 36.069 15.549 C 36.156 15.113 36.332 14.936 36.775 14.949 C 37.489 14.97 38.919 14.941 38.919 14.941 L 39.732 14.942 L 39.126 14.446 C 39.126 14.446 36.764 12.376 35.591 11.333 C 34.478 10.344 33.304 9.424 32.256 8.362 C 29.932 10.383 27.487 12.403 25.167 14.43 C 25.046 14.535 24.566 14.951 24.566 14.951 C 24.566 14.951 25.217 14.94 25.388 14.942 C 26.242 14.952 27.096 14.949 27.95 14.957 C 28.684 14.965 28.737 15.02 28.554 15.705 C 28.364 16.416 28.17 17.128 27.925 17.821 C 25.63 24.307 19.09 29.382 11.398 28.457 C 11.075 28.419 10.575 28.251 10.49 28.731 C 10.416 29.153 10.914 29.191 11.216 29.289 Z " fill="rgb(236,32,37)"/><path d=" M 37.024 38.966 C 37.034 38.887 37.051 38.808 37.051 38.729 C 37.051 38.695 37.051 38.661 37.051 38.627 C 37.05 31.218 37.008 23.842 37.003 16.433 C 37.003 16.313 36.979 16.071 36.845 16.041 C 36.735 16.38 36.701 16.529 36.616 16.833 C 36.011 19.155 34.958 21.261 33.54 23.184 C 33.275 23.543 33.173 23.902 33.174 24.339 C 33.185 28.141 33.178 31.942 33.182 35.743 C 33.183 36.704 33.196 37.666 33.206 38.627 C 33.208 38.74 33.209 38.853 33.21 38.966 C 34.481 38.966 35.753 38.966 37.024 38.966 Z " fill="rgb(236,32,37)"/><path d=" M 31.422 38.966 C 31.422 38.853 31.422 38.74 31.422 38.627 C 31.423 34.54 31.424 30.454 31.42 26.367 C 31.42 26.181 31.439 25.957 31.315 25.882 C 31.151 25.781 30.972 25.982 30.841 26.096 C 29.937 26.878 28.962 27.563 27.943 28.183 C 27.694 28.335 27.546 28.504 27.492 28.751 L 27.492 38.966 C 28.802 38.966 30.112 38.966 31.422 38.966 Z " fill="rgb(236,32,37)"/><path d=" M 25.684 38.966 L 25.684 38.6 C 25.683 38.588 25.683 38.576 25.683 38.564 C 25.683 38.277 25.683 37.989 25.684 37.702 L 25.684 29.796 C 25.653 29.504 25.487 29.42 25.16 29.55 C 24.274 29.904 23.372 30.213 22.441 30.422 C 22.111 30.496 21.946 30.645 21.88 30.894 L 21.88 38.966 C 23.098 38.966 24.47 38.966 25.684 38.966 Z " fill="rgb(236,32,37)"/><path d=" M 14.256 38.966 C 14.257 38.853 14.257 38.74 14.258 38.627 C 14.266 36.197 14.272 33.767 14.29 31.337 C 14.292 30.961 14.118 30.797 13.777 30.742 C 12.837 30.591 11.913 30.367 11.007 30.074 C 10.584 29.938 10.416 30.068 10.418 30.503 C 10.429 33.211 10.434 35.919 10.441 38.627 C 10.441 38.74 10.442 38.853 10.442 38.966 C 11.713 38.966 12.985 38.966 14.256 38.966 Z " fill="rgb(236,32,37)"/><path d=" M 19.978 38.966 C 19.978 38.853 19.978 38.74 19.978 38.627 C 19.98 36.253 19.98 33.879 19.987 31.504 C 19.988 31.065 19.793 30.913 19.362 30.94 C 18.471 30.995 17.579 31.032 16.687 31.044 C 16.272 31.05 16.132 31.227 16.135 31.624 C 16.15 33.958 16.155 36.292 16.163 38.627 C 16.163 38.74 16.163 38.853 16.164 38.966 C 17.435 38.966 18.707 38.966 19.978 38.966 Z " fill="rgb(236,32,37)"/></g></g></svg>