<?xml version="1.0" standalone="no"?><!-- Generator: Gravit.io --><svg xmlns="http://www.w3.org/2000/svg" xmlns:xlink="http://www.w3.org/1999/xlink" style="isolation:isolate" viewBox="0 0 48 48" width="48" height="48"><defs><clipPath id="_clipPath_VbHs4087f5roUIJ6VbuIPX0v6Y1RYLTQ"><rect width="48" height="48"/></clipPath></defs><g clip-path="url(#_clipPath_VbHs4087f5roUIJ6VbuIPX0v6Y1RYLTQ)"><linearGradient id="_lgradient_0" x1="51.838500025635206%" y1="-1.1834373546236732%" x2="52.22708828907302%" y2="99.45428931471574%"><stop offset="0%" stop-opacity="0" style="stop-color:rgb(0,0,0)"/><stop offset="100%" stop-opacity="0.046875" style="stop-color:rgb(0,0,0)"/></linearGradient><path d=" M 2.433 26.443 L 2.433 28.111 C 2.433 37.686 8.191 45.393 20.114 45.393 L 27.26 45.393 C 42.864 45.393 45.653 34.071 45.653 28.111 L 45.653 26.443 C 45.653 32.402 42.864 43.725 27.26 43.725 L 20.114 43.725 C 8.191 43.725 2.433 36.017 2.433 26.443 Z " fill="url(#_lgradient_0)"/><path d=" M 19.564 2.965 L 28.324 2.965 C 42.666 2.965 45.653 14.211 45.653 20.247 L 45.653 27.37 C 45.653 33.329 42.864 44.652 27.26 44.652 L 20.114 44.652 C 8.191 44.652 2.433 36.944 2.433 27.37 L 2.433 20.247 C 2.433 10.672 8.074 2.965 19.564 2.965 Z " fill="rgb(227,231,234)" vector-effect="non-scaling-stroke" stroke-width="0.339" stroke="rgb(0,0,0)" stroke-opacity="0.078125" stroke-linejoin="bevel" stroke-linecap="square" stroke-miterlimit="4"/><g id="PayPal"><path d=" M 18.645 37.661 L 19.156 34.389 L 18.018 34.363 L 12.58 34.363 L 16.359 10.22 C 16.371 10.148 16.409 10.08 16.465 10.031 C 16.52 9.983 16.592 9.956 16.666 9.956 L 25.835 9.956 C 28.878 9.956 30.979 10.595 32.076 11.854 C 32.59 12.445 32.917 13.063 33.076 13.742 C 33.242 14.455 33.245 15.307 33.082 16.346 L 33.071 16.422 L 33.071 17.088 L 33.585 17.381 C 34.018 17.613 34.362 17.878 34.626 18.181 C 35.066 18.686 35.35 19.328 35.47 20.09 C 35.595 20.873 35.553 21.804 35.35 22.859 C 35.116 24.073 34.736 25.129 34.224 25.994 C 33.753 26.791 33.153 27.452 32.44 27.964 C 31.76 28.45 30.952 28.82 30.038 29.056 C 29.152 29.289 28.142 29.406 27.035 29.406 L 26.321 29.406 C 25.811 29.406 25.315 29.591 24.926 29.923 C 24.536 30.262 24.278 30.724 24.199 31.231 L 24.145 31.525 L 23.242 37.292 L 23.201 37.503 C 23.19 37.57 23.172 37.604 23.145 37.626 C 23.12 37.647 23.085 37.661 23.051 37.661 L 18.645 37.661 Z " fill="rgb(37,59,128)"/><path d=" M 34.072 16.499 L 34.072 16.499 L 34.072 16.499 C 34.044 16.675 34.013 16.855 33.978 17.041 C 32.769 23.296 28.632 25.456 23.349 25.456 L 20.659 25.456 C 20.013 25.456 19.468 25.929 19.368 26.571 L 19.368 26.571 L 19.368 26.571 L 17.99 35.372 L 17.6 37.867 C 17.535 38.288 17.857 38.668 18.28 38.668 L 23.051 38.668 C 23.616 38.668 24.096 38.255 24.185 37.693 L 24.231 37.449 L 25.13 31.705 L 25.187 31.39 C 25.275 30.827 25.756 30.413 26.321 30.413 L 27.035 30.413 C 31.657 30.413 35.276 28.522 36.333 23.05 C 36.775 20.764 36.547 18.856 35.378 17.513 C 35.024 17.109 34.585 16.773 34.072 16.499 Z " fill="rgb(23,155,215)"/><path d=" M 32.807 15.991 C 32.622 15.937 32.431 15.887 32.236 15.843 C 32.039 15.8 31.838 15.761 31.631 15.728 C 30.906 15.61 30.111 15.553 29.26 15.553 L 22.073 15.553 C 21.896 15.553 21.728 15.594 21.578 15.667 C 21.246 15.827 21 16.143 20.94 16.53 L 19.412 26.287 L 19.368 26.571 C 19.468 25.929 20.013 25.456 20.659 25.456 L 23.349 25.456 C 28.632 25.456 32.769 23.295 33.978 17.041 C 34.014 16.855 34.044 16.675 34.072 16.499 C 33.766 16.335 33.434 16.196 33.078 16.076 C 32.99 16.047 32.899 16.018 32.807 15.991 Z " fill="rgb(34,45,101)"/><path d=" M 20.94 16.53 C 21 16.143 21.246 15.827 21.578 15.668 C 21.729 15.595 21.896 15.554 22.073 15.554 L 29.26 15.554 C 30.111 15.554 30.906 15.611 31.631 15.729 C 31.838 15.762 32.039 15.801 32.236 15.844 C 32.431 15.888 32.622 15.938 32.807 15.992 C 32.899 16.019 32.99 16.048 33.079 16.076 C 33.435 16.196 33.767 16.336 34.073 16.499 C 34.432 14.187 34.07 12.614 32.829 11.189 C 31.462 9.62 28.994 8.948 25.835 8.948 L 16.667 8.948 C 16.022 8.948 15.471 9.421 15.372 10.064 L 11.553 34.454 C 11.478 34.937 11.847 35.372 12.33 35.372 L 17.99 35.372 L 19.412 26.287 L 20.94 16.53 Z " fill="rgb(37,59,128)"/></g></g></svg>