<?xml version="1.0" standalone="no"?><!-- Generator: Gravit.io --><svg xmlns="http://www.w3.org/2000/svg" xmlns:xlink="http://www.w3.org/1999/xlink" style="isolation:isolate" viewBox="0 0 48 48" width="48" height="48"><defs><clipPath id="_clipPath_cDHZH1nwGeWcFSFGaTNzTNZmhkuMwEfw"><rect width="48" height="48"/></clipPath></defs><g clip-path="url(#_clipPath_cDHZH1nwGeWcFSFGaTNzTNZmhkuMwEfw)"><linearGradient id="_lgradient_0" x1="51.83849748284093%" y1="-1.1834429628734044%" x2="52.22708554895935%" y2="99.45428482696683%"><stop offset="0%" stop-opacity="0" style="stop-color:rgb(0,0,0)"/><stop offset="100%" stop-opacity="0.046875" style="stop-color:rgb(0,0,0)"/></linearGradient><path d=" M 2.751 26.22 L 2.751 27.889 C 2.751 37.463 8.401 45.171 20.1 45.171 L 27.113 45.171 C 42.425 45.171 45.161 33.848 45.161 27.889 L 45.161 26.22 C 45.161 32.18 42.425 43.502 27.113 43.502 L 20.1 43.502 C 8.401 43.502 2.751 35.794 2.751 26.22 Z " fill="url(#_lgradient_0)"/><path d=" M 19.561 2.743 L 28.157 2.743 C 42.23 2.743 45.161 13.99 45.161 20.025 L 45.161 27.147 C 45.161 33.107 42.425 44.429 27.113 44.429 L 20.101 44.429 C 8.401 44.429 2.751 36.721 2.751 27.147 L 2.751 20.025 C 2.751 10.451 8.286 2.743 19.561 2.743 Z " fill="rgb(37,178,238)" vector-effect="non-scaling-stroke" stroke-width="0.336" stroke="rgb(0,0,0)" stroke-opacity="0.078125" stroke-linejoin="bevel" stroke-linecap="square" stroke-miterlimit="4"/><g id="c69daeed83263f4181af64089e81c7b6"><path d=" M 35.338 13.262 C 32.959 11.2 29.632 10.008 25.762 10.008 C 15.676 10.008 8.818 17.736 8.818 17.736 L 10.752 20.784 C 10.752 20.784 11.821 20.872 11.255 19.079 C 11.743 18.162 12.701 16.926 14.57 15.502 C 14.57 15.502 14.57 34.749 14.57 35.794 C 13.764 36.019 12.701 36.445 13.427 37.164 C 14.666 37.164 18.057 37.164 18.978 37.164 C 19.71 36.435 18.555 35.997 17.854 35.794 C 17.854 35.012 17.854 31.006 17.854 31.006 C 17.854 31.006 21.659 32.49 25.765 32.49 C 29.37 32.49 32.65 31.426 35.091 29.501 C 37.531 27.59 39.104 24.733 39.094 21.466 C 39.097 18.259 37.717 15.314 35.338 13.262 Z  M 32.394 27.896 C 30.707 29.551 28.252 30.597 25.422 30.593 C 22.265 30.593 19.605 29.986 17.851 29.129 C 17.851 29.129 17.851 28.603 17.851 24.767 C 17.851 20.618 17.851 13.903 17.851 13.903 C 19.775 12.545 22.901 11.707 25.422 11.713 C 28.486 11.716 30.893 12.864 32.521 14.61 C 34.146 16.366 35.032 18.697 35.041 21.407 C 35.029 24.054 34.081 26.228 32.394 27.896 Z " fill="rgb(255,255,255)"/></g></g></svg>