<?xml version="1.0" encoding="UTF-8" standalone="no"?>
<!-- Generator: Gravit.io -->

<svg
   xmlns:dc="http://purl.org/dc/elements/1.1/"
   xmlns:cc="http://creativecommons.org/ns#"
   xmlns:rdf="http://www.w3.org/1999/02/22-rdf-syntax-ns#"
   xmlns:svg="http://www.w3.org/2000/svg"
   xmlns="http://www.w3.org/2000/svg"
   xmlns:sodipodi="http://sodipodi.sourceforge.net/DTD/sodipodi-0.dtd"
   xmlns:inkscape="http://www.inkscape.org/namespaces/inkscape"
   style="isolation:isolate"
   viewBox="0 0 48 48"
   width="48"
   height="48"
   version="1.1"
   id="svg25"
   sodipodi:docname="protondb.svg"
   inkscape:version="0.92.1 r15371">
  <metadata
     id="metadata29">
    <rdf:RDF>
      <cc:Work
         rdf:about="">
        <dc:format>image/svg+xml</dc:format>
        <dc:type
           rdf:resource="http://purl.org/dc/dcmitype/StillImage" />
      </cc:Work>
    </rdf:RDF>
  </metadata>
  <sodipodi:namedview
     pagecolor="#ffffff"
     bordercolor="#666666"
     borderopacity="1"
     objecttolerance="10"
     gridtolerance="10"
     guidetolerance="10"
     inkscape:pageopacity="0"
     inkscape:pageshadow="2"
     inkscape:window-width="1360"
     inkscape:window-height="678"
     id="namedview27"
     showgrid="false"
     inkscape:zoom="4.9166667"
     inkscape:cx="33.760229"
     inkscape:cy="24"
     inkscape:window-x="0"
     inkscape:window-y="0"
     inkscape:window-maximized="1"
     inkscape:current-layer="svg25" />
  <defs
     id="defs5">
    <clipPath
       id="_clipPath_lwbA2RDCak1yteUIG8Cr3wqw7eHD8qyR">
      <rect
         width="48"
         height="48"
         id="rect2" />
    </clipPath>
    <radialGradient
       gradientUnits="userSpaceOnUse"
       gradientTransform="scale(1.0026855,0.99732167)"
       r="21.066924"
       cy="23.872438"
       cx="24.043929"
       fy="23.872438"
       fx="24.043929"
       id="_rgradient_1">
      <stop
         id="stop7"
         style="stop-color:rgb(41,128,185)"
         stop-opacity="1"
         offset="0%" />
      <stop
         id="stop9"
         style="stop-color:rgb(36,58,79)"
         stop-opacity="1"
         offset="98.26086956521739%" />
    </radialGradient>
  </defs>
  <path
     inkscape:connector-curvature="0"
     style="vector-effect:non-scaling-stroke;fill:url(#_rgradient_1);stroke:#000000;stroke-width:0.33399999;stroke-linecap:square;stroke-linejoin:bevel;stroke-miterlimit:4;stroke-opacity:0.078125"
     id="path12"
     stroke-miterlimit="4"
     d="m 19.765,2.965 h 8.496 c 13.907,0 16.804,11.246 16.804,17.282 v 7.123 c 0,5.959 -2.704,17.282 -17.837,17.282 h -6.93 C 8.736,44.652 3.152,36.944 3.152,27.37 v -7.123 c 0,-9.575 5.471,-17.282 16.613,-17.282 z" />
  <g
     id="g4502"
     transform="translate(1.5254237,1.118644)">
    <g
       transform="matrix(0.91491149,0,0,0.92880389,1.0841836,1.4268526)"
       id="g852">
      <g
         id="atom-svgrepo-com"
         transform="matrix(0.96708488,0,0,0.94495508,0.18336479,0.39526315)">
        <g
           id="XMLID_1499_">
          <path
             style="fill:#e3006e"
             inkscape:connector-curvature="0"
             id="path14"
             d="m 34.87,29.936 c 0.828,-0.258 1.611,-0.544 2.342,-0.858 3.579,-1.537 5.508,-3.576 5.432,-5.742 -0.077,-2.166 -2.146,-4.104 -5.827,-5.455 -0.568,-0.209 -1.166,-0.401 -1.789,-0.575 0.136,-0.626 0.245,-1.238 0.325,-1.833 0.516,-3.851 -0.245,-6.567 -2.143,-7.648 -1.899,-1.081 -4.623,-0.35 -7.672,2.06 -0.47,0.372 -0.941,0.778 -1.41,1.215 C 23.66,10.653 23.19,10.236 22.721,9.854 19.68,7.379 16.958,6.587 15.056,7.627 c -1.902,1.04 -2.671,3.74 -2.166,7.602 0.103,0.788 0.256,1.608 0.457,2.451 -0.828,0.258 -1.611,0.545 -2.341,0.858 -3.58,1.537 -5.509,3.576 -5.433,5.742 0.058,1.624 1.234,3.119 3.371,4.335 0.714,0.407 1.534,0.782 2.456,1.121 0.569,0.208 1.166,0.4 1.789,0.574 -0.136,0.626 -0.245,1.238 -0.325,1.833 -0.516,3.851 0.245,6.568 2.144,7.649 1.898,1.081 4.622,0.349 7.671,-2.061 0.471,-0.372 0.942,-0.778 1.41,-1.214 0.468,0.446 0.938,0.863 1.407,1.245 0.762,0.62 1.503,1.134 2.217,1.541 2.136,1.216 4.023,1.466 5.448,0.686 1.902,-1.039 2.671,-3.739 2.166,-7.602 -0.103,-0.788 -0.256,-1.608 -0.457,-2.451 z m 1.542,-10.94 c 3.143,1.155 4.979,2.747 5.036,4.37 0.057,1.623 -1.663,3.307 -4.719,4.619 -0.674,0.289 -1.397,0.554 -2.159,0.794 -0.443,-1.574 -1.04,-3.216 -1.772,-4.876 0.833,-1.857 1.492,-3.694 1.952,-5.442 0.579,0.163 1.133,0.341 1.662,0.535 z M 24.339,30.35 c -1.332,0.034 -2.643,0.009 -3.915,-0.071 -0.718,-1.053 -1.408,-2.168 -2.059,-3.331 -0.6,-1.071 -1.146,-2.149 -1.635,-3.22 0.492,-1.06 1.042,-2.126 1.644,-3.185 0.603,-1.059 1.24,-2.075 1.9,-3.039 1.171,-0.126 2.376,-0.207 3.604,-0.238 1.332,-0.034 2.643,-0.009 3.915,0.072 0.718,1.052 1.409,2.167 2.059,3.33 0.6,1.072 1.146,2.15 1.635,3.22 -0.492,1.061 -1.041,2.127 -1.644,3.185 -0.603,1.059 -1.239,2.075 -1.9,3.04 -1.17,0.125 -2.376,0.206 -3.604,0.237 z m 2.687,1.046 c -0.947,1.271 -1.933,2.43 -2.934,3.446 -0.95,-0.989 -1.887,-2.107 -2.789,-3.327 1.009,0.042 2.038,0.051 3.078,0.025 0.894,-0.023 1.777,-0.071 2.645,-0.144 z m -8.114,-1.242 c -1.509,-0.153 -2.949,-0.388 -4.284,-0.701 0.363,-1.379 0.856,-2.818 1.466,-4.282 0.381,0.784 0.79,1.568 1.226,2.348 v 0 c 0.509,0.909 1.041,1.789 1.592,2.635 z M 16.098,22.27 c -0.526,-1.283 -0.964,-2.547 -1.306,-3.767 1.224,-0.328 2.534,-0.596 3.906,-0.799 -0.471,0.725 -0.927,1.475 -1.366,2.245 -0.439,0.771 -0.851,1.546 -1.234,2.321 z m 5.093,-6.05 c 0.947,-1.271 1.933,-2.43 2.934,-3.446 0.951,0.989 1.887,2.107 2.789,3.327 -1.009,-0.042 -2.037,-0.051 -3.078,-0.024 v 0 c -0.894,0.022 -1.777,0.071 -2.645,0.143 z m 8.114,1.242 c 1.509,0.153 2.949,0.388 4.285,0.701 -0.364,1.379 -0.857,2.819 -1.467,4.282 -0.38,-0.783 -0.79,-1.568 -1.226,-2.348 -0.508,-0.908 -1.041,-1.789 -1.592,-2.635 z m 2.814,7.884 c 0.526,1.283 0.964,2.547 1.306,3.767 -1.224,0.329 -2.534,0.597 -3.906,0.799 0.471,-0.725 0.927,-1.474 1.366,-2.245 0.439,-0.771 0.851,-1.546 1.234,-2.321 z M 26.288,10.819 c 2.603,-2.057 4.912,-2.773 6.335,-1.963 1.422,0.81 1.985,3.161 1.544,6.449 -0.074,0.553 -0.175,1.122 -0.3,1.704 -1.675,-0.393 -3.502,-0.667 -5.422,-0.817 -1.108,-1.574 -2.277,-3.006 -3.469,-4.246 0.437,-0.405 0.875,-0.781 1.312,-1.127 z m -12.212,4.268 c -0.431,-3.299 0.139,-5.637 1.564,-6.416 1.036,-0.566 2.537,-0.316 4.278,0.675 0.654,0.372 1.341,0.849 2.05,1.426 0.437,0.355 0.873,0.741 1.309,1.156 -1.269,1.288 -2.512,2.792 -3.684,4.455 -1.802,0.218 -3.518,0.543 -5.098,0.965 -0.183,-0.778 -0.324,-1.534 -0.419,-2.261 z m -2.27,13.533 c -3.144,-1.154 -4.98,-2.747 -5.037,-4.37 -0.057,-1.623 1.663,-3.306 4.72,-4.619 0.673,-0.289 1.396,-0.554 2.158,-0.794 0.443,1.575 1.04,3.216 1.772,4.876 -0.833,1.857 -1.491,3.694 -1.952,5.442 -0.578,-0.163 -1.133,-0.341 -1.661,-0.535 z m 10.123,8.177 c -2.603,2.058 -4.912,2.773 -6.334,1.963 -1.423,-0.81 -1.986,-3.16 -1.544,-6.449 0.074,-0.553 0.174,-1.121 0.299,-1.703 1.675,0.392 3.503,0.667 5.422,0.816 1.108,1.575 2.277,3.006 3.469,4.246 -0.437,0.405 -0.874,0.781 -1.312,1.127 z m 10.648,2.148 c -1.425,0.779 -3.731,0.013 -6.328,-2.101 -0.436,-0.355 -0.873,-0.741 -1.308,-1.155 1.268,-1.288 2.511,-2.792 3.683,-4.456 1.802,-0.218 3.518,-0.542 5.098,-0.965 0.183,0.778 0.324,1.535 0.419,2.262 0.431,3.298 -0.139,5.636 -1.564,6.415 z" />
          <g
             id="XMLID_321_">
            <path
               style="fill:#ffffff"
               inkscape:connector-curvature="0"
               id="path16"
               d="m 22.46,26.058 c -1.437,-0.819 -1.948,-2.641 -1.138,-4.062 0.809,-1.422 2.637,-1.913 4.074,-1.094 1.437,0.818 1.948,2.64 1.138,4.062 -0.809,1.421 -2.637,1.912 -4.074,1.094 z m 2.349,-4.125 c -0.863,-0.491 -1.959,-0.197 -2.445,0.656 -0.486,0.853 -0.179,1.946 0.683,2.437 0.863,0.491 1.959,0.197 2.445,-0.656 0.485,-0.853 0.179,-1.946 -0.683,-2.437 z" />
            <rect
               style="fill:#ffffff"
               id="rect18"
               transform="matrix(1,-0.006,-0.006,1,0.141,0.143)"
               height="4.1129999"
               width="4.0840001"
               y="21.533001"
               x="21.957001" />
          </g>
        </g>
      </g>
    </g>
  </g>
</svg>
