<?xml version="1.0" encoding="UTF-8" standalone="no"?>
<!-- Generator: Gravit.io -->

<svg
   xmlns:dc="http://purl.org/dc/elements/1.1/"
   xmlns:cc="http://creativecommons.org/ns#"
   xmlns:rdf="http://www.w3.org/1999/02/22-rdf-syntax-ns#"
   xmlns:svg="http://www.w3.org/2000/svg"
   xmlns="http://www.w3.org/2000/svg"
   xmlns:sodipodi="http://sodipodi.sourceforge.net/DTD/sodipodi-0.dtd"
   xmlns:inkscape="http://www.inkscape.org/namespaces/inkscape"
   style="isolation:isolate"
   viewBox="0 0 48 48"
   width="48"
   height="48"
   version="1.1"
   id="svg28"
   sodipodi:docname="claro.svg"
   inkscape:version="0.92.3 (2405546, 2018-03-11)">
  <metadata
     id="metadata32">
    <rdf:RDF>
      <cc:Work
         rdf:about="">
        <dc:format>image/svg+xml</dc:format>
        <dc:type
           rdf:resource="http://purl.org/dc/dcmitype/StillImage" />
      </cc:Work>
    </rdf:RDF>
  </metadata>
  <sodipodi:namedview
     pagecolor="#ffffff"
     bordercolor="#666666"
     borderopacity="1"
     objecttolerance="10"
     gridtolerance="10"
     guidetolerance="10"
     inkscape:pageopacity="0"
     inkscape:pageshadow="2"
     inkscape:window-width="1360"
     inkscape:window-height="678"
     id="namedview30"
     showgrid="false"
     inkscape:zoom="4.9166667"
     inkscape:cx="24.40678"
     inkscape:cy="24"
     inkscape:window-x="0"
     inkscape:window-y="0"
     inkscape:window-maximized="1"
     inkscape:current-layer="svg28" />
  <defs
     id="defs5"><clipPath
   id="_clipPath_zsb146AnMKWUt9PSzPrgk6bk1Jc3b8yZ">
  <rect
     width="48"
     height="48"
     id="rect2" />
</clipPath>

	
	

		
			
		
	
			
		<linearGradient
   id="_lgradient_1"
   x1="24.088341"
   y1="45.461998"
   x2="24.088341"
   y2="2.7871084"
   gradientTransform="scale(0.99257571,1.0074798)"
   gradientUnits="userSpaceOnUse">
  <stop
     offset="0%"
     stop-opacity="1"
     style="stop-color:rgb(198,20,35)"
     id="stop7" />
  <stop
     offset="100%"
     stop-opacity="1"
     style="stop-color:rgb(220,43,65)"
     id="stop9" />
</linearGradient>
</defs>
  <path
     d="m 2.6620476,29.057725 v -8.699523 c 0,-14.2425909 11.4649704,-17.2093747 17.6169304,-17.2093747 h 7.261045 c 6.074487,0 17.61693,2.7700125 17.61693,18.2662597 v 7.096952 c 0,11.840764 -7.857383,17.559303 -17.61693,17.559303 h -7.261045 c -9.759547,0 -17.6169304,-5.601896 -17.6169304,-17.013617 z"
     stroke-miterlimit="4"
     id="path12"
     style="vector-effect:non-scaling-stroke;fill:#203040;fill-opacity:1;stroke:#000000;stroke-width:0.34165469;stroke-linecap:square;stroke-linejoin:bevel;stroke-miterlimit:4;stroke-opacity:0.078125"
     inkscape:connector-curvature="0" />
  <g
     id="g855"
     transform="matrix(1.0193803,0,0,1.0142851,-0.5732583,3.0810679)">
		<g
   id="g849">
			<path
   style="fill:#ffffff"
   inkscape:connector-curvature="0"
   d="m 7.469,17.594 c 0.813,0.403 1.631,0.607 2.538,0.607 1.215,0 2.118,-0.463 2.118,-1.232 0,-0.328 -0.212,-0.571 -0.477,-0.783 C 11.383,15.974 10.627,15.771 9.816,15.479 8.84,15.099 8.207,14.724 7.914,14.353 7.622,13.981 7.476,13.531 7.476,13.004 c 0,-0.754 0.33,-1.357 0.991,-1.811 0.659,-0.454 1.473,-0.68 2.438,-0.68 0.748,0 1.442,0.126 2.085,0.377 v 1.19 c -0.618,-0.257 -1.403,-0.352 -2.236,-0.352 -0.499,0 -1.174,0.126 -1.486,0.337 -0.312,0.211 -0.534,0.531 -0.534,0.874 0,0.338 0.24,0.59 0.466,0.779 0.225,0.189 0.761,0.49 1.705,0.678 0.981,0.354 1.645,0.72 1.989,1.1 0.344,0.38 0.517,0.849 0.517,1.407 0,0.779 -0.33,1.393 -0.991,1.841 -0.659,0.449 -1.515,0.673 -2.565,0.673 -0.913,0 -1.708,-0.166 -2.387,-0.5 v -1.323 z"
   id="path847" />

		</g>

		<rect
   style="fill:#ffffff"
   x="10"
   y="9"
   width="1"
   height="12"
   id="rect851" />

		<rect
   style="fill:#ffffff"
   x="16"
   y="9"
   width="4"
   height="12"
   id="rect853" />

	</g>
</svg>
