<?xml version="1.0" encoding="UTF-8" standalone="no"?>
<svg
   xmlns:dc="http://purl.org/dc/elements/1.1/"
   xmlns:cc="http://creativecommons.org/ns#"
   xmlns:rdf="http://www.w3.org/1999/02/22-rdf-syntax-ns#"
   xmlns:svg="http://www.w3.org/2000/svg"
   xmlns="http://www.w3.org/2000/svg"
   xmlns:sodipodi="http://sodipodi.sourceforge.net/DTD/sodipodi-0.dtd"
   xmlns:inkscape="http://www.inkscape.org/namespaces/inkscape"
   width="16"
   height="16"
   version="1.1"
   id="svg7"
   sodipodi:docname="audio-input-microphone-high-panel.svg"
   inkscape:version="0.92.1 r15371">
  <metadata
     id="metadata11">
    <rdf:RDF>
      <cc:Work
         rdf:about="">
        <dc:format>image/svg+xml</dc:format>
        <dc:type
           rdf:resource="http://purl.org/dc/dcmitype/StillImage" />
      </cc:Work>
    </rdf:RDF>
  </metadata>
  <sodipodi:namedview
     pagecolor="#ffffff"
     bordercolor="#666666"
     borderopacity="1"
     objecttolerance="10"
     gridtolerance="10"
     guidetolerance="10"
     inkscape:pageopacity="0"
     inkscape:pageshadow="2"
     inkscape:window-width="1360"
     inkscape:window-height="678"
     id="namedview9"
     showgrid="false"
     inkscape:zoom="14.75"
     inkscape:cx="4.8361338"
     inkscape:cy="8"
     inkscape:window-x="0"
     inkscape:window-y="0"
     inkscape:window-maximized="1"
     inkscape:current-layer="svg7" />
  <defs
     id="defs3">
    <style
       id="current-color-scheme"
       type="text/css">
   .ColorScheme-Text { color:#d3dae3; } .ColorScheme-Highlight { color:#5294e2; }
  </style>
  </defs>
  <g
     id="g832">
    <path
       id="path5"
       d="M 8,0 C 6.34,0 5,1.34 5,3 V 8 C 5,9.66 6.34,11 8,11 9.66,11 11,9.66 11,8 V 3 C 11,1.34 9.66,0 8,0 Z M 2,7 V 8 C 2,10.97 4.16,13.43 7,13.91 V 16 H 9 V 13.91 C 11.84,13.43 14,10.97 14,8 V 7 H 12 V 8 C 12,10.23 10.23,12 8,12 5.77,12 4,10.23 4,8 V 7 Z"
       class="ColorScheme-Text"
       style="fill:#ffffff" />
    <path
       inkscape:connector-curvature="0"
       id="path8"
       d="m 15.401153,4.1593699 a 2.0050405,2.0816715 0 0 1 -4.010081,0 2.0050405,2.0816715 0 1 1 4.010081,0 z"
       style="color:#000000;clip-rule:evenodd;fill:#d33636;stroke-width:1.02149844;image-rendering:optimizeQuality;shape-rendering:geometricPrecision" />
  </g>
</svg>
