<?xml version="1.0" encoding="UTF-8" standalone="no"?>
<svg
   xmlns:dc="http://purl.org/dc/elements/1.1/"
   xmlns:cc="http://creativecommons.org/ns#"
   xmlns:rdf="http://www.w3.org/1999/02/22-rdf-syntax-ns#"
   xmlns:svg="http://www.w3.org/2000/svg"
   xmlns="http://www.w3.org/2000/svg"
   xmlns:sodipodi="http://sodipodi.sourceforge.net/DTD/sodipodi-0.dtd"
   xmlns:inkscape="http://www.inkscape.org/namespaces/inkscape"
   width="16"
   height="16"
   version="1.1"
   id="svg7"
   sodipodi:docname="audio-recorder-off.svg"
   inkscape:version="0.92.1 r15371">
  <metadata
     id="metadata11">
    <rdf:RDF>
      <cc:Work
         rdf:about="">
        <dc:format>image/svg+xml</dc:format>
        <dc:type
           rdf:resource="http://purl.org/dc/dcmitype/StillImage" />
      </cc:Work>
    </rdf:RDF>
  </metadata>
  <sodipodi:namedview
     pagecolor="#ffffff"
     bordercolor="#666666"
     borderopacity="1"
     objecttolerance="10"
     gridtolerance="10"
     guidetolerance="10"
     inkscape:pageopacity="0"
     inkscape:pageshadow="2"
     inkscape:window-width="1360"
     inkscape:window-height="678"
     id="namedview9"
     showgrid="false"
     inkscape:zoom="29.5"
     inkscape:cx="5.2807617"
     inkscape:cy="6.8462176"
     inkscape:window-x="0"
     inkscape:window-y="0"
     inkscape:window-maximized="1"
     inkscape:current-layer="svg7" />
  <defs
     id="defs3">
    <style
       id="current-color-scheme"
       type="text/css">
   .ColorScheme-Text { color:#d3dae3; } .ColorScheme-Highlight { color:#5294e2; }
  </style>
    <style
       type="text/css"
       id="current-color-scheme-3">
   .ColorScheme-Text { color:#d3dae3; } .ColorScheme-Highlight { color:#5294e2; }
  </style>
  </defs>
  <path
     inkscape:connector-curvature="0"
     style="color:#d3dae3;fill:#ffffff"
     class="ColorScheme-Text"
     d="M 8,0 C 6.34,0 5,1.34 5,3 v 5 c 0,1.66 1.34,3 3,3 1.66,0 3,-1.34 3,-3 V 3 C 11,1.34 9.66,0 8,0 Z M 2,7 v 1 c 0,2.97 2.16,5.43 5,5.91 V 16 H 9 V 13.91 C 11.84,13.43 14,10.97 14,8 V 7 h -2 v 1 c 0,2.23 -1.77,4 -4,4 C 5.77,12 4,10.23 4,8 V 7 Z"
     id="path5" />
  <path
     style="clip-rule:evenodd;fill:#ffffff;fill-opacity:1;fill-rule:evenodd;stroke-width:0.57045817;image-rendering:optimizeQuality;shape-rendering:geometricPrecision"
     d="m 11.860588,12.52943 v 3.381819 h 1.732087 V 12.52943 Z m 2.30945,0 v 3.381819 h 1.732086 V 12.52943 Z"
     id="path8-3"
     inkscape:connector-curvature="0" />
</svg>
