<?xml version="1.0" encoding="UTF-8" standalone="no"?>
<svg
   xmlns:dc="http://purl.org/dc/elements/1.1/"
   xmlns:cc="http://creativecommons.org/ns#"
   xmlns:rdf="http://www.w3.org/1999/02/22-rdf-syntax-ns#"
   xmlns:svg="http://www.w3.org/2000/svg"
   xmlns="http://www.w3.org/2000/svg"
   xmlns:sodipodi="http://sodipodi.sourceforge.net/DTD/sodipodi-0.dtd"
   xmlns:inkscape="http://www.inkscape.org/namespaces/inkscape"
   width="16px"
   height="16px"
   viewBox="0 0 16 16"
   version="1.1"
   id="svg18"
   sodipodi:docname="deepin-music.svg"
   inkscape:version="0.92.1 r15371">
  <metadata
     id="metadata22">
    <rdf:RDF>
      <cc:Work
         rdf:about="">
        <dc:format>image/svg+xml</dc:format>
        <dc:type
           rdf:resource="http://purl.org/dc/dcmitype/StillImage" />
        <dc:title>deepin-music</dc:title>
      </cc:Work>
    </rdf:RDF>
  </metadata>
  <sodipodi:namedview
     pagecolor="#ffffff"
     bordercolor="#666666"
     borderopacity="1"
     objecttolerance="10"
     gridtolerance="10"
     guidetolerance="10"
     inkscape:pageopacity="0"
     inkscape:pageshadow="2"
     inkscape:window-width="1360"
     inkscape:window-height="678"
     id="namedview20"
     showgrid="false"
     inkscape:zoom="14.75"
     inkscape:cx="-4.779661"
     inkscape:cy="8"
     inkscape:window-x="0"
     inkscape:window-y="0"
     inkscape:window-maximized="1"
     inkscape:current-layer="svg18" />
  <!-- Generator: Sketch 46.2 (44496) - http://www.bohemiancoding.com/sketch -->
  <title
     id="title2">deepin-music</title>
  <desc
     id="desc4">Created with Sketch.</desc>
  <defs
     id="defs6" />
  <g
     id="g848">
    <path
       style="fill:#f9f9f9;fill-rule:evenodd;stroke:none;stroke-width:1"
       inkscape:connector-curvature="0"
       id="circle13330"
       d="M 4,8.5 C 4,11.537566 6.4624339,14 9.5,14 12.537566,14 15,11.537566 15,8.5 15,5.4624339 12.537566,3 9.5,3 6.4624339,3 4,5.4624339 4,8.5" />
    <path
       inkscape:connector-curvature="0"
       id="path9"
       d="M 5,8.5 C 5,10.985281 7.0147186,13 9.5,13 11.985281,13 14,10.985281 14,8.5 14,6.0147186 11.985281,4 9.5,4 7.0147186,4 5,6.0147186 5,8.5"
       style="fill:none;fill-rule:evenodd;stroke:none;stroke-width:1" />
    <circle
       style="fill:#333333;fill-rule:evenodd;stroke:none;stroke-width:1"
       r="2.5"
       cy="-9.5"
       cx="8.5"
       transform="rotate(90)"
       id="circle13353" />
    <circle
       style="fill:#cccccc;fill-rule:evenodd;stroke:none;stroke-width:1"
       r="1.5"
       cy="-9.5"
       cx="8.5"
       transform="rotate(90)"
       id="circle12" />
    <rect
       style="fill:#ffffff;fill-rule:evenodd;stroke:none;stroke-width:1"
       height="9"
       width="13"
       y="-10"
       x="2"
       transform="rotate(90)"
       id="Rectangle-118" />
    <path
       style="fill:#333333;fill-rule:evenodd;stroke:none;stroke-width:1"
       inkscape:connector-curvature="0"
       id="Combined-Shape"
       d="m 5.8795758,5.2250004 c 0,-0.1 0.081166,-0.2246665 0.2454242,-0.2249999 0.1642583,-3.333e-4 0.201607,0.1532198 0.201607,0.1532198 0,0 -0.010359,0.4346661 0.8350325,1 0.1546089,0.1013328 1.6649677,1 0.9260253,2.6403339 0,0 -0.04,0.084333 -0.1283333,0.049 -0.069667,-0.028 -0.046,-0.117 -0.046,-0.117 0,0 0.5799422,-1.7390006 -1.5867245,-2.2390006 0,0 0.0035,2.3600364 0.0014,3.0053953 C 6.330107,9.9865538 5.9996861,10.439211 5.40486,10.598594 4.7735918,10.767742 4.155627,10.508444 4.024597,10.019431 3.893567,9.5304207 4.2990902,8.9968779 4.9303584,8.8277301 c 0.3465303,-0.092852 0.6890518,-0.056597 0.9492174,0.075891 0,-0.1536208 0,-3.5786209 0,-3.6786207 z" />
  </g>
</svg>
