<?xml version="1.0" encoding="UTF-8" standalone="no"?>
<svg
   xmlns:dc="http://purl.org/dc/elements/1.1/"
   xmlns:cc="http://creativecommons.org/ns#"
   xmlns:rdf="http://www.w3.org/1999/02/22-rdf-syntax-ns#"
   xmlns:svg="http://www.w3.org/2000/svg"
   xmlns="http://www.w3.org/2000/svg"
   xmlns:sodipodi="http://sodipodi.sourceforge.net/DTD/sodipodi-0.dtd"
   xmlns:inkscape="http://www.inkscape.org/namespaces/inkscape"
   width="16px"
   height="16px"
   viewBox="0 0 16 16"
   version="1.1"
   id="svg17"
   sodipodi:docname="deepin-voice-recorder.svg"
   inkscape:version="0.92.1 r15371">
  <metadata
     id="metadata21">
    <rdf:RDF>
      <cc:Work
         rdf:about="">
        <dc:format>image/svg+xml</dc:format>
        <dc:type
           rdf:resource="http://purl.org/dc/dcmitype/StillImage" />
      </cc:Work>
    </rdf:RDF>
  </metadata>
  <sodipodi:namedview
     pagecolor="#ffffff"
     bordercolor="#666666"
     borderopacity="1"
     objecttolerance="10"
     gridtolerance="10"
     guidetolerance="10"
     inkscape:pageopacity="0"
     inkscape:pageshadow="2"
     inkscape:window-width="1360"
     inkscape:window-height="678"
     id="namedview19"
     showgrid="false"
     inkscape:zoom="14.75"
     inkscape:cx="0.88135593"
     inkscape:cy="8"
     inkscape:window-x="0"
     inkscape:window-y="0"
     inkscape:window-maximized="1"
     inkscape:current-layer="svg17" />
  <!-- Generator: Sketch 42 (36781) - http://www.bohemiancoding.com/sketch -->
  <title
     id="title2">deepin-sound-recorder</title>
  <desc
     id="desc4">Created with Sketch.</desc>
  <defs
     id="defs11">
    <linearGradient
       x1="10.601337"
       y1="1.0095706"
       x2="10.601337"
       y2="12.008072"
       id="linearGradient-1"
       gradientTransform="matrix(0.91653999,0,0,1.3680153,-1.5894538,-0.70702179)"
       gradientUnits="userSpaceOnUse">
      <stop
         stop-color="#FF5388"
         offset="0%"
         id="stop6" />
      <stop
         stop-color="#EE3A3A"
         offset="100%"
         id="stop8" />
    </linearGradient>
  </defs>
  <g
     id="g838"
     transform="translate(-0.20338983)">
    <path
       inkscape:connector-curvature="0"
       style="fill:#ffffff;fill-rule:evenodd;stroke:none;stroke-width:1.11975026"
       id="Combined-Shape"
       d="M 7.5588666,13.528502 C 4.7809003,13.294396 2.983051,11.338378 2.983051,8.6927079 V 5.8740926 h 1.1431262 v 2.8186153 c 0,2.2251971 1.5434328,3.7624991 4.0009417,3.7624991 2.1597591,0 3.5405171,-1.183584 3.9390731,-3.1494248 0.02997,-0.1478152 0.06187,-0.8256286 0.06187,-1.1679702 V 5.8740926 h 1.143126 V 7.5193712 8.137812 c 0,0.4149292 -0.03393,1.1358611 -0.0829,1.377419 -0.463631,2.2868 -2.077003,3.80579 -4.4862942,4.012634 v 1.124273 l 2.2829412,-0.0032 V 15.74579 H 5.2693034 v -1.096852 l 2.2895632,0.0032 z M 5.2693034,3.1293585 c 0,-1.5129995 1.2684838,-2.73952789 2.8578155,-2.73952789 1.5783279,0 2.8578151,1.23690769 2.8578151,2.73952789 v 5.4894683 c 0,1.5129992 -1.2684834,2.7395282 -2.8578151,2.7395282 -1.5783279,0 -2.8578155,-1.236908 -2.8578155,-2.7395282 z" />
    <ellipse
       ry="0.54842621"
       rx="0.57156312"
       style="fill:#ff0f00;fill-opacity:1;fill-rule:evenodd;stroke:none;stroke-width:1.11975026"
       cy="3.1319616"
       cx="8.1271191"
       id="Oval" />
  </g>
</svg>
