<?xml version="1.0" encoding="UTF-8" standalone="no"?>
<svg xmlns="http://www.w3.org/2000/svg" version="1.1" width="16" height="16">
 <title>
  Gnome Symbolic Icon Theme
 </title>
 <path d="M 1.7773438 1 C 1.3470743 1 1 1.4321508 1 1.96875 L 1 11.03125 C 1 11.567849 1.3470743 12 1.7773438 12 L 14.222656 12 C 14.652926 12 15 11.567849 15 11.03125 L 15 1.96875 C 15 1.4321508 14.652926 1 14.222656 1 L 1.7773438 1 z M 7 2 L 9 2 L 9 3 L 13 3 L 13 10 L 3 10 L 3 3 L 7 3 L 7 2 z M 1.1425781 13 C 0.50943524 13 0 13.446 0 14 C 0 14.554 0.50943524 15 1.1425781 15 L 14.857422 15 C 15.490565 15 16 14.554 16 14 C 16 13.446 15.490565 13 14.857422 13 L 1.1425781 13 z" style="opacity:1;fill:#cccccc;fill-opacity:1;stroke:none"/>
</svg>
