<?xml version="1.0" encoding="UTF-8" standalone="no"?>
<svg xmlns="http://www.w3.org/2000/svg" version="1.1" width="16" height="16">
 <title>
  Gnome Symbolic Icon Theme
 </title>
 <path style="opacity:1;fill:#cccccc;fill-opacity:1;stroke:none" d="M 1.7773438 1 C 1.3470743 1 1 1.4321508 1 1.96875 L 1 11.03125 C 1 11.567849 1.3470743 12 1.7773438 12 L 7 12 L 7 10 L 3 10 L 3 3 L 7 3 L 7 2 L 9 2 L 9 3 L 13 3 L 13 7.0058594 L 15 7.0058594 L 15 1.96875 C 15 1.4321508 14.652926 1 14.222656 1 L 1.7773438 1 z M 1.1425781 13 C 0.50943527 13 1.4802974e-16 13.446 0 14 C 0 14.554 0.50943526 15 1.1425781 15 L 7 15 L 7 13 L 1.1425781 13 z"/>
 <path class="warning" d="m 8.8749998,8 c -0.49245,0 -0.875,0.38256 -0.875,0.875 l 0,6.25 c 0,0.49244 0.38255,0.875 0.875,0.875 L 15.125,16 C 15.61745,16 16,15.61744 16,15.125 l 0,-6.25 c 0,-0.49 -0.38,-0.87 -0.88,-0.87 l -6.2500002,0 z M 11,9 l 2,0 0,4 -2,0 0,-4 z m 0,5 2,0 0,1 -2,0 0,-1 z" style="color:#bebebe;fill:#f57900"/>
</svg>
