<?xml version="1.0" encoding="UTF-8" standalone="no"?>
<svg xmlns="http://www.w3.org/2000/svg" height="16" width="16" version="1.1">
 <title>
  Gnome Symbolic Icon Theme
 </title>
 <path style="fill:#cccccc;fill-opacity:1" d="M 4.8222656 1 C 3.8039961 1 3 1.64771 3 2.46875 L 3 13.53125 C 3 14.35224 3.803934 15 4.8222656 15 L 7 15 L 7 14 L 7 12 L 7 11 L 5 11 L 5 3 L 11 3 L 11 7.0058594 L 13 7.0058594 L 13 2.46875 C 13 1.64776 12.196066 1 11.177734 1 L 4.8222656 1 z"/>
 <path class="warning" d="m 8.8749999,7.9999998 c -0.49245,0 -0.875,0.38256 -0.875,0.875 l 0,6.2500002 c 0,0.49244 0.38255,0.875 0.875,0.875 L 15.125,16 C 15.61745,16 16,15.61744 16,15.125 l 0,-6.2500002 c 0,-0.49 -0.38,-0.87 -0.88,-0.87 l -6.2500001,0 z m 2.1250001,1 2,0 L 13,13 11,13 11,8.9999998 Z M 11,14 l 2,0 0,1 -2,0 0,-1 z" style="color:#bebebe;fill:#f57900"/>
</svg>
