<?xml version="1.0" encoding="UTF-8" standalone="no"?>
<svg xmlns="http://www.w3.org/2000/svg" version="1.1" width="16" height="16">
 <title>
  Gnome Symbolic Icon Theme
 </title>
 <path style="opacity:1;fill:#cccccc;fill-opacity:1;stroke:none" d="M 1.7773438 2 C 1.3470743 2 1 2.4321508 1 2.96875 L 1 13.03125 C 1 13.567849 1.3470743 14 1.7773438 14 L 7 14 L 7 12 L 3 12 L 3 4 L 7 4 L 7 3 L 9 3 L 9 4 L 13 4 L 13 7.0058594 L 15 7.0058594 L 15 2.96875 C 15 2.4321508 14.652926 2 14.222656 2 L 1.7773438 2 z"/>
 <path class="warning" d="m 8.875,8.0000001 c -0.49245,0 -0.875,0.38256 -0.875,0.875 L 8,15.125 C 8,15.61744 8.38255,16 8.875,16 l 6.25,0 C 15.61745,16 16,15.61744 16,15.125 l 0,-6.2499999 c 0,-0.49 -0.38,-0.87 -0.88,-0.87 l -6.25,0 z m 2.125,1 2,0 L 13,13 11,13 11,9.0000001 Z M 11,14 l 2,0 0,1 -2,0 0,-1 z" style="color:#bebebe;fill:#f57900"/>
</svg>
